<?xml version="1.0" encoding="utf-8"?>
<!-- Generator: Adobe Illustrator 26.0.1, SVG Export Plug-In . SVG Version: 6.00 Build 0)  -->
<svg version="1.1" xmlns="http://www.w3.org/2000/svg" xmlns:xlink="http://www.w3.org/1999/xlink" x="0px" y="0px"
	 viewBox="0 0 841.89 595.28" style="enable-background:new 0 0 841.89 595.28;" xml:space="preserve">
<style type="text/css">
	.st0{fill:#E9E670;stroke:#000000;stroke-width:2;stroke-miterlimit:10;}
</style>
<g id="Calque_1">
</g>
<g id="Calque_2">
	<path class="st0" d="M341.45,215.75c-24.55-64.48-77.29-104.25-117.8-88.83c-40.51,15.42-53.44,80.2-28.89,144.68
		c24.55,64.48,77.29,104.25,117.8,88.83S366,280.23,341.45,215.75z M307.4,346.89c-32.91,12.53-77.18-23.52-98.89-80.52
		c-21.7-57-12.62-113.37,20.29-125.9c32.91-12.53,77.18,23.52,98.89,80.52C349.4,277.99,340.31,334.36,307.4,346.89z"/>
	<path class="st0" d="M315.7,222.23c-24.55-64.48-77.29-104.25-117.8-88.83c-40.51,15.42-53.44,80.2-28.89,144.68
		c24.55,64.48,77.29,104.25,117.8,88.83S340.26,286.71,315.7,222.23z M281.66,353.36c-32.91,12.53-77.18-23.52-98.89-80.52
		c-21.7-57-12.62-113.37,20.29-125.9c32.91-12.53,77.18,23.52,98.89,80.52C323.65,284.46,314.57,340.83,281.66,353.36z"/>
	<path class="st0" d="M287.93,230.13c-24.55-64.48-77.29-104.25-117.8-88.83c-40.51,15.42-53.44,80.2-28.89,144.68
		c24.55,64.48,77.29,104.25,117.8,88.83S312.49,294.61,287.93,230.13z M253.89,361.27c-32.91,12.53-77.18-23.52-98.89-80.52
		c-21.7-57-12.62-113.37,20.29-125.9c32.91-12.53,77.18,23.52,98.89,80.52C295.88,292.37,286.8,348.74,253.89,361.27z"/>
	<path class="st0" d="M260.86,236.61c-24.55-64.48-77.29-104.25-117.8-88.83c-40.51,15.42-53.44,80.2-28.89,144.68
		c24.55,64.48,77.29,104.25,117.8,88.83S285.41,301.09,260.86,236.61z M226.82,367.74c-32.91,12.53-77.18-23.52-98.89-80.52
		c-21.7-57-12.62-113.37,20.29-125.9c32.91-12.53,77.18,23.52,98.89,80.52C268.81,298.84,259.73,355.21,226.82,367.74z"/>
</g>
</svg>
