<svg xmlns="http://www.w3.org/2000/svg" viewBox="0 0 203.33 203.33"><defs><style>.cls-1{fill:#d7a3ca;stroke:#010101;stroke-miterlimit:10;stroke-width:2px;}.cls-2{fill:#010101;}</style></defs><g id="Calque_2" data-name="Calque 2"><path class="cls-1" d="M471,228.11A100.65,100.65,0,1,0,557.72,341,100.65,100.65,0,0,0,471,228.11Zm3.79,143.72c-11,26.67-11.72,25-11.72,25s-12-32.77-33-47.79-34.66-20-34.66-20,32.23-16.05,44-30.27,24.86-38.34,24.86-38.34,5.35,23.94,23.2,41.59,44,26.35,44,26.35S485.73,345.16,474.75,371.83Z" transform="translate(-356.26 -226.25)"/><path class="cls-2" d="M419.71,324.74a4.35,4.35,0,0,1,1.81,1.72,5.14,5.14,0,0,1,.64,2.58,5.08,5.08,0,0,1-.64,2.57,4.37,4.37,0,0,1-1.81,1.7,5.85,5.85,0,0,1-2.71.6h-3.41v-9.77H417A5.85,5.85,0,0,1,419.71,324.74Zm-.4,6.67a3.2,3.2,0,0,0,.84-2.37,3.29,3.29,0,0,0-.84-2.39,3.18,3.18,0,0,0-2.38-.86h-1.38v6.46h1.38A3.21,3.21,0,0,0,419.31,331.41Z" transform="translate(-356.26 -226.25)"/><path class="cls-2" d="M425.05,333.54a3.58,3.58,0,0,1-1.4-1.41,4.19,4.19,0,0,1-.51-2.1,4.14,4.14,0,0,1,.52-2.1,3.66,3.66,0,0,1,1.44-1.4,4.15,4.15,0,0,1,2-.5,4.21,4.21,0,0,1,2,.5,3.7,3.7,0,0,1,1.43,1.4,4.15,4.15,0,0,1,.53,2.1,4,4,0,0,1-.54,2.1,3.73,3.73,0,0,1-1.46,1.41,4.23,4.23,0,0,1-2.05.5A4.12,4.12,0,0,1,425.05,333.54Zm3-1.47a1.89,1.89,0,0,0,.75-.78,2.55,2.55,0,0,0,.28-1.26,2.34,2.34,0,0,0-.58-1.7,1.93,1.93,0,0,0-1.42-.59,1.89,1.89,0,0,0-1.41.59,2.38,2.38,0,0,0-.57,1.7,2.43,2.43,0,0,0,.56,1.71,1.84,1.84,0,0,0,1.39.59A2.07,2.07,0,0,0,428.07,332.07Z" transform="translate(-356.26 -226.25)"/><path class="cls-2" d="M432.54,327.93a3.52,3.52,0,0,1,1.36-1.4,4,4,0,0,1,2-.5,3.84,3.84,0,0,1,2.39.72,3.49,3.49,0,0,1,1.26,2h-2.11a1.53,1.53,0,0,0-.57-.79,1.62,1.62,0,0,0-1-.28,1.6,1.6,0,0,0-1.33.61,3.26,3.26,0,0,0,0,3.44,1.6,1.6,0,0,0,1.33.61,1.49,1.49,0,0,0,1.55-1.07h2.11a3.61,3.61,0,0,1-1.27,2,3.8,3.8,0,0,1-2.38.74,4,4,0,0,1-2-.5,3.52,3.52,0,0,1-1.36-1.4,4.77,4.77,0,0,1,0-4.21Z" transform="translate(-356.26 -226.25)"/><path class="cls-2" d="M448.31,326.16v7.75h-2v-1a2.54,2.54,0,0,1-1,.79A3.12,3.12,0,0,1,444,334a3.28,3.28,0,0,1-1.61-.39,2.73,2.73,0,0,1-1.1-1.13,3.8,3.8,0,0,1-.39-1.78v-4.55h2v4.27a2,2,0,0,0,.46,1.42,1.88,1.88,0,0,0,2.53,0,2,2,0,0,0,.46-1.42v-4.27Z" transform="translate(-356.26 -226.25)"/><path class="cls-2" d="M462.17,326.92a3.27,3.27,0,0,1,.88,2.44v4.55h-2v-4.28a1.91,1.91,0,0,0-.46-1.39,1.64,1.64,0,0,0-1.26-.49,1.67,1.67,0,0,0-1.27.49,1.92,1.92,0,0,0-.47,1.39v4.28h-2v-4.28a1.91,1.91,0,0,0-.46-1.39,1.64,1.64,0,0,0-1.26-.49,1.67,1.67,0,0,0-1.28.49,1.92,1.92,0,0,0-.47,1.39v4.28h-2v-7.75h2v.93a2.74,2.74,0,0,1,1-.77,3.17,3.17,0,0,1,1.31-.28,3.36,3.36,0,0,1,1.63.39,2.71,2.71,0,0,1,1.1,1.1,2.79,2.79,0,0,1,1.1-1.08,3.33,3.33,0,0,1,3.86.47Z" transform="translate(-356.26 -226.25)"/><path class="cls-2" d="M472.07,330.62H466.4a1.93,1.93,0,0,0,.58,1.32,1.81,1.81,0,0,0,1.28.47,1.6,1.6,0,0,0,1.55-.93h2.12a3.62,3.62,0,0,1-1.29,1.84,3.79,3.79,0,0,1-2.34.72,4,4,0,0,1-2-.5,3.56,3.56,0,0,1-1.39-1.41,4.29,4.29,0,0,1-.49-2.1,4.35,4.35,0,0,1,.49-2.11,3.36,3.36,0,0,1,1.37-1.4,4.39,4.39,0,0,1,4,0,3.28,3.28,0,0,1,1.36,1.35,4.09,4.09,0,0,1,.48,2A5.54,5.54,0,0,1,472.07,330.62Zm-2-1.31a1.55,1.55,0,0,0-.54-1.21,1.92,1.92,0,0,0-1.31-.46,1.79,1.79,0,0,0-1.22.44,1.93,1.93,0,0,0-.61,1.23Z" transform="translate(-356.26 -226.25)"/><path class="cls-2" d="M480.09,326.92a3.34,3.34,0,0,1,.85,2.44v4.55h-2v-4.28a2,2,0,0,0-.46-1.42,1.65,1.65,0,0,0-1.26-.5,1.68,1.68,0,0,0-1.28.5,2,2,0,0,0-.47,1.42v4.28h-2v-7.75h2v1a2.71,2.71,0,0,1,1-.79,3.13,3.13,0,0,1,1.34-.29A3,3,0,0,1,480.09,326.92Z" transform="translate(-356.26 -226.25)"/><path class="cls-2" d="M485.08,327.77v3.75a.74.74,0,0,0,.19.56.92.92,0,0,0,.64.18h.91v1.65h-1.23a2.16,2.16,0,0,1-2.48-2.41v-3.73h-.92v-1.61h.92v-1.92h2v1.92h1.74v1.61Z" transform="translate(-356.26 -226.25)"/><path class="cls-2" d="M488.2,327.92a3.46,3.46,0,0,1,1.27-1.4,3.38,3.38,0,0,1,1.8-.49,3.19,3.19,0,0,1,1.52.35,3,3,0,0,1,1,.88v-1.1h2v7.75h-2v-1.13a2.88,2.88,0,0,1-1,.9,3.14,3.14,0,0,1-1.53.36,3.3,3.3,0,0,1-1.79-.51,3.51,3.51,0,0,1-1.27-1.42,4.9,4.9,0,0,1,0-4.19Zm5.35.89a1.88,1.88,0,0,0-.75-.78,2,2,0,0,0-2,0,2.06,2.06,0,0,0-.75.77,2.5,2.5,0,0,0-.29,1.22,2.53,2.53,0,0,0,.29,1.22,2.05,2.05,0,0,0,.76.81,2,2,0,0,0,2,0,1.88,1.88,0,0,0,.75-.78,2.82,2.82,0,0,0,0-2.45Z" transform="translate(-356.26 -226.25)"/><path class="cls-2" d="M497.86,324.9a1.08,1.08,0,0,1-.34-.82,1.06,1.06,0,0,1,.34-.81,1.2,1.2,0,0,1,.86-.33,1.18,1.18,0,0,1,.86.33,1.06,1.06,0,0,1,.34.81,1.08,1.08,0,0,1-.34.82,1.18,1.18,0,0,1-.86.33A1.2,1.2,0,0,1,497.86,324.9Zm1.83,1.26v7.75h-2v-7.75Z" transform="translate(-356.26 -226.25)"/><path class="cls-2" d="M504.57,326.39A2.76,2.76,0,0,1,506,326v2.06h-.52a1.64,1.64,0,0,0-1.86,1.95v3.86h-2v-7.75h2v1.2A2.79,2.79,0,0,1,504.57,326.39Z" transform="translate(-356.26 -226.25)"/><path class="cls-2" d="M514.43,330.62h-5.67a1.9,1.9,0,0,0,.59,1.32,1.78,1.78,0,0,0,1.27.47,1.59,1.59,0,0,0,1.55-.93h2.12a3.62,3.62,0,0,1-1.29,1.84,3.75,3.75,0,0,1-2.34.72,4.1,4.1,0,0,1-2-.5,3.47,3.47,0,0,1-1.38-1.41,4.29,4.29,0,0,1-.5-2.1,4.35,4.35,0,0,1,.49-2.11,3.42,3.42,0,0,1,1.37-1.4,4.09,4.09,0,0,1,2-.49,4,4,0,0,1,2,.48,3.22,3.22,0,0,1,1.36,1.35,4.09,4.09,0,0,1,.48,2A4.28,4.28,0,0,1,514.43,330.62Zm-2-1.31a1.52,1.52,0,0,0-.54-1.21,1.92,1.92,0,0,0-1.3-.46,1.8,1.8,0,0,0-1.23.44,2,2,0,0,0-.61,1.23Z" transform="translate(-356.26 -226.25)"/></g></svg>