<?xml version="1.0" encoding="utf-8"?>
<!-- Generator: Adobe Illustrator 26.0.1, SVG Export Plug-In . SVG Version: 6.00 Build 0)  -->
<svg version="1.1" id="Calque_1" xmlns="http://www.w3.org/2000/svg" xmlns:xlink="http://www.w3.org/1999/xlink" x="0px" y="0px"
	 viewBox="0 0 841.89 595.28" style="enable-background:new 0 0 841.89 595.28;" xml:space="preserve">
<style type="text/css">
	.st0{fill:#E9E670;stroke:#000000;stroke-width:2;stroke-miterlimit:10;}
	.st1{fill:#D7A2CA;stroke:#000000;stroke-width:2;stroke-miterlimit:10;}
	.st2{fill:#E9E670;stroke:#000000;stroke-width:0.25;stroke-miterlimit:10;}
</style>
<path class="st0" d="M416.93,218.88c-68.93,3.14-123.2,40.79-121.23,84.08c1.97,43.3,59.45,75.85,128.38,72.71
	c68.93-3.14,123.2-40.79,121.23-84.08C543.33,248.29,485.85,215.74,416.93,218.88z M530.82,292.25
	c1.6,35.18-46.49,65.95-107.42,68.72c-60.93,2.78-111.62-23.49-113.22-58.67c-1.6-35.18,46.49-65.95,107.42-68.72
	C478.53,230.8,529.22,257.07,530.82,292.25z"/>
<path class="st0" d="M416.93,218.88c-68.93,3.14-123.2,40.79-121.23,84.08c1.97,43.3,59.45,75.85,128.38,72.71
	c68.93-3.14,123.2-40.79,121.23-84.08C543.33,248.29,485.85,215.74,416.93,218.88z M530.82,292.25
	c1.6,35.18-46.49,65.95-107.42,68.72c-60.93,2.78-111.62-23.49-113.22-58.67c-1.6-35.18,46.49-65.95,107.42-68.72
	C478.53,230.8,529.22,257.07,530.82,292.25z"/>
<path class="st1" d="M416.93,218.88c-68.93,3.14-123.2,40.79-121.23,84.08c1.97,43.3,59.45,75.85,128.38,72.71
	c68.93-3.14,123.2-40.79,121.23-84.08C543.33,248.29,485.85,215.74,416.93,218.88z M530.82,292.25
	c1.6,35.18-46.49,65.95-107.42,68.72c-60.93,2.78-111.62-23.49-113.22-58.67c-1.6-35.18,46.49-65.95,107.42-68.72
	C478.53,230.8,529.22,257.07,530.82,292.25z"/>
<path class="st1" d="M407.93,191.3c-68.93,3.14-123.2,40.79-121.23,84.08c1.97,43.3,59.45,75.85,128.38,72.71
	c68.93-3.14,123.2-40.79,121.23-84.08C534.33,220.71,476.85,188.16,407.93,191.3z M521.82,264.67
	c1.6,35.18-46.49,65.95-107.42,68.72c-60.93,2.78-111.62-23.49-113.22-58.67c-1.6-35.18,46.49-65.95,107.42-68.72
	C469.53,203.22,520.22,229.49,521.82,264.67z"/>
<path class="st2" d="M245,141.28"/>
</svg>
