<svg xmlns="http://www.w3.org/2000/svg" viewBox="0 0 185.81 92.84"><defs><style>.cls-1{fill:#939fd1;stroke:#000;stroke-miterlimit:10;}</style></defs><g id="Calque_1" data-name="Calque 1"><path class="cls-1" d="M467.38,288h0c-2-17-8.87-51.8-35.74-71a85.08,85.08,0,0,0-11.24-6.64c-8.84-4.55-36.51-18.26-68.17-10.21a82.47,82.47,0,0,0-17.36,6.64c-7.14,3.55-25.26,12.71-38,32.93-3.63,5.74-5.84,11.52-8.94,19.15a54.27,54.27,0,0,0-3.57,11.24c-1,5.6.12,5.13-1,11.48-.55,3-1.31,5.94,0,6.9.46.34.93.25,2.55.25,2.44,0,2.79.21,4.6.26,10.72.3,42.12.25,42.12.25l.86,0c.68,0,1.78,0,2.38-.06a4.61,4.61,0,0,0,3.28-3,4.91,4.91,0,0,0,.25-2.3c-.39-3.64,2.22-10.3,2.94-12.13,2.63-6.71,11.37-14.62,22.08-17.87,2.84-.86,11.95-3.62,21.45,0a42.12,42.12,0,0,1,9.45,5.49c3.6,2.55,6.94,5,9.83,9.19a30.55,30.55,0,0,1,4.08,9.07c1.31,4.42,2.08,7.7,1.53,9.83-.06.26-.32,1.15.13,1.66s1.71.29,1.91.25c1.93-.39,22.44-.29,54.64.13" transform="translate(-282.07 -197.17)"/></g><g id="Calque_2" data-name="Calque 2"><path d="M347.45,235l-1.85-3.26h-.79V235h-1.68v-8.38h3.14a3.67,3.67,0,0,1,1.66.35,2.35,2.35,0,0,1,1,.92,2.5,2.5,0,0,1,.34,1.3,2.53,2.53,0,0,1-.48,1.5,2.42,2.42,0,0,1-1.42.91l2,3.4Zm-2.64-4.52h1.4a1.39,1.39,0,0,0,1-.33,1.25,1.25,0,0,0,.34-.92,1.21,1.21,0,0,0-.34-.9,1.43,1.43,0,0,0-1-.31h-1.4Z" transform="translate(-282.07 -197.17)"/><path d="M357,232.18h-4.86a1.68,1.68,0,0,0,.5,1.13,1.58,1.58,0,0,0,1.1.41,1.38,1.38,0,0,0,1.33-.81h1.81a3,3,0,0,1-1.1,1.58,3.27,3.27,0,0,1-2,.62,3.41,3.41,0,0,1-1.72-.43,3,3,0,0,1-1.19-1.2,4.11,4.11,0,0,1,0-3.62,2.94,2.94,0,0,1,1.17-1.2,3.77,3.77,0,0,1,3.44,0,2.82,2.82,0,0,1,1.16,1.16,3.45,3.45,0,0,1,.42,1.72A4.19,4.19,0,0,1,357,232.18Zm-1.69-1.13a1.36,1.36,0,0,0-.47-1,1.66,1.66,0,0,0-1.12-.39,1.56,1.56,0,0,0-1.05.38,1.7,1.7,0,0,0-.52,1.05ZM355,226.6l-2.76,1.26v-1.2l2.76-1.43Z" transform="translate(-282.07 -197.17)"/><path d="M361.27,229.73h-1.16V235H358.4v-5.27h-.75v-1.38h.75V228a2.18,2.18,0,0,1,.7-1.8,3.08,3.08,0,0,1,2.1-.55v1.42a1.19,1.19,0,0,0-.85.21,1,1,0,0,0-.24.78v.27h1.16Z" transform="translate(-282.07 -197.17)"/><path d="M368.49,232.18h-4.86a1.64,1.64,0,0,0,.51,1.13,1.55,1.55,0,0,0,1.09.41,1.37,1.37,0,0,0,1.33-.81h1.81a3,3,0,0,1-1.1,1.58,3.22,3.22,0,0,1-2,.62,3.42,3.42,0,0,1-1.73-.43,3.05,3.05,0,0,1-1.19-1.2,4.11,4.11,0,0,1,0-3.62,2.9,2.9,0,0,1,1.18-1.2,3.75,3.75,0,0,1,3.43,0,2.9,2.9,0,0,1,1.17,1.16,3.56,3.56,0,0,1,.41,1.72A4.19,4.19,0,0,1,368.49,232.18Zm-1.69-1.13a1.33,1.33,0,0,0-.47-1,1.64,1.64,0,0,0-1.11-.39,1.52,1.52,0,0,0-1.05.38,1.6,1.6,0,0,0-.52,1.05Zm-.25-4.45-2.76,1.26v-1.2l2.76-1.43Z" transform="translate(-282.07 -197.17)"/><path d="M372.29,228.56a2.36,2.36,0,0,1,1.19-.3V230H373a1.66,1.66,0,0,0-1.19.37,1.71,1.71,0,0,0-.41,1.3V235h-1.67v-6.65h1.67v1A2.38,2.38,0,0,1,372.29,228.56Z" transform="translate(-282.07 -197.17)"/><path d="M380.74,232.18h-4.86a1.64,1.64,0,0,0,.51,1.13,1.55,1.55,0,0,0,1.09.41,1.37,1.37,0,0,0,1.33-.81h1.81a3,3,0,0,1-1.1,1.58,3.22,3.22,0,0,1-2,.62,3.44,3.44,0,0,1-1.73-.43,3,3,0,0,1-1.18-1.2,3.64,3.64,0,0,1-.43-1.81,3.78,3.78,0,0,1,.42-1.81,2.9,2.9,0,0,1,1.18-1.2,3.75,3.75,0,0,1,3.43,0,2.9,2.9,0,0,1,1.17,1.16,3.56,3.56,0,0,1,.41,1.72A3.24,3.24,0,0,1,380.74,232.18Zm-1.69-1.13a1.33,1.33,0,0,0-.47-1,1.64,1.64,0,0,0-1.11-.39,1.52,1.52,0,0,0-1.05.38,1.6,1.6,0,0,0-.52,1.05Z" transform="translate(-282.07 -197.17)"/><path d="M387.62,229a2.85,2.85,0,0,1,.73,2.09V235h-1.68v-3.67a1.74,1.74,0,0,0-.39-1.22,1.44,1.44,0,0,0-1.08-.43,1.45,1.45,0,0,0-1.1.43,1.69,1.69,0,0,0-.4,1.22V235H382v-6.65h1.68v.83a2.37,2.37,0,0,1,.85-.68,2.72,2.72,0,0,1,1.15-.24A2.57,2.57,0,0,1,387.62,229Z" transform="translate(-282.07 -197.17)"/><path d="M389.94,229.87a2.92,2.92,0,0,1,1.16-1.2,3.41,3.41,0,0,1,1.7-.43,3.29,3.29,0,0,1,2.05.62,3,3,0,0,1,1.09,1.74h-1.82a1.25,1.25,0,0,0-.48-.68,1.38,1.38,0,0,0-.85-.25,1.41,1.41,0,0,0-1.14.52,2.82,2.82,0,0,0,0,3,1.41,1.41,0,0,0,1.14.52,1.27,1.27,0,0,0,1.33-.91h1.82a3,3,0,0,1-1.1,1.71,3.17,3.17,0,0,1-2,.64,3.31,3.31,0,0,1-1.7-.43,2.92,2.92,0,0,1-1.16-1.2,4.09,4.09,0,0,1,0-3.61Z" transform="translate(-282.07 -197.17)"/><path d="M403.3,232.18h-4.86a1.64,1.64,0,0,0,.51,1.13,1.55,1.55,0,0,0,1.09.41,1.37,1.37,0,0,0,1.33-.81h1.81a3,3,0,0,1-1.1,1.58,3.22,3.22,0,0,1-2,.62,3.44,3.44,0,0,1-1.73-.43,3,3,0,0,1-1.18-1.2,3.64,3.64,0,0,1-.43-1.81,3.78,3.78,0,0,1,.42-1.81,2.9,2.9,0,0,1,1.18-1.2,3.75,3.75,0,0,1,3.43,0,2.9,2.9,0,0,1,1.17,1.16,3.56,3.56,0,0,1,.41,1.72A3.24,3.24,0,0,1,403.3,232.18Zm-1.69-1.13a1.33,1.33,0,0,0-.47-1,1.64,1.64,0,0,0-1.11-.39,1.52,1.52,0,0,0-1,.38,1.6,1.6,0,0,0-.52,1.05Z" transform="translate(-282.07 -197.17)"/><path d="M405.66,234.81a2.52,2.52,0,0,1-1-.79,2,2,0,0,1-.41-1.12h1.69a.92.92,0,0,0,.38.64,1.35,1.35,0,0,0,.82.25,1.34,1.34,0,0,0,.75-.19.6.6,0,0,0,.27-.5.52.52,0,0,0-.33-.48,6.11,6.11,0,0,0-1.05-.36,8.69,8.69,0,0,1-1.22-.37,2.08,2.08,0,0,1-.82-.59,1.6,1.6,0,0,1-.34-1.06,1.73,1.73,0,0,1,.32-1,2.07,2.07,0,0,1,.91-.72,3.36,3.36,0,0,1,1.4-.27,2.86,2.86,0,0,1,1.9.6,2.2,2.2,0,0,1,.78,1.6h-1.61a.91.91,0,0,0-.33-.63,1.22,1.22,0,0,0-.79-.23,1.25,1.25,0,0,0-.7.16.56.56,0,0,0-.25.47.55.55,0,0,0,.34.51,4.83,4.83,0,0,0,1,.36,8.56,8.56,0,0,1,1.19.37,2.12,2.12,0,0,1,.81.59,1.63,1.63,0,0,1,.36,1.06,1.8,1.8,0,0,1-.32,1,2.12,2.12,0,0,1-.91.71,3.52,3.52,0,0,1-1.39.26A3.43,3.43,0,0,1,405.66,234.81Z" transform="translate(-282.07 -197.17)"/></g></svg>