<svg id="Calque_1" data-name="Calque 1" xmlns="http://www.w3.org/2000/svg" viewBox="0 0 141.6 138.04"><defs><style>.cls-1,.cls-2{fill:#fff;}.cls-2{stroke:#000;stroke-miterlimit:10;stroke-width:2px;}</style></defs><path class="cls-1" d="M362.11,213.85" transform="translate(-318.52 -212.85)"/><path class="cls-1" d="M427.47,298.62" transform="translate(-318.52 -212.85)"/><path class="cls-2" d="M325.33,215.39c70,0,92.93-.14,100.08-.34,6.92-.19,14.09,1.48,20.77-.34,2-.54,5.25-1.63,7.83,0,2.08,1.31,2.77,3.81,3.74,7.49a41.77,41.77,0,0,1,1.36,9.87,48.65,48.65,0,0,1-2,15,43.18,43.18,0,0,1-4.09,9.53c-7.74,12.2-32,10.55-32,10.55s-6.12-2.72-6.46,21.45-22.3,20.77-22.3,20.77-17.53-1.71-17.53,13.27,4.08,26.9-25.19,27.24-30-2.05-30-2.05v-127S318.86,215.38,325.33,215.39Z" transform="translate(-318.52 -212.85)"/><path d="M342.42,258.17a2.66,2.66,0,0,1-1.16,1.11,4.22,4.22,0,0,1-2,.42h-1.64v3.75h-2v-9.77h3.6a4.37,4.37,0,0,1,1.93.39,2.75,2.75,0,0,1,1.2,1.08,3.19,3.19,0,0,1,0,3Zm-2-.43a1.35,1.35,0,0,0,.39-1c0-.95-.53-1.43-1.6-1.43h-1.55v2.84h1.55A1.72,1.72,0,0,0,340.39,257.74Z" transform="translate(-318.52 -212.85)"/><path d="M347.13,255.93a2.76,2.76,0,0,1,1.39-.35v2.06H348a2,2,0,0,0-1.39.43,2,2,0,0,0-.47,1.51v3.87h-2v-7.76h2v1.21A2.71,2.71,0,0,1,347.13,255.93Z" transform="translate(-318.52 -212.85)"/><path d="M351.26,263.08a3.58,3.58,0,0,1-1.4-1.41,4.24,4.24,0,0,1-.51-2.1,4.14,4.14,0,0,1,.52-2.1,3.62,3.62,0,0,1,1.44-1.41,4.15,4.15,0,0,1,2-.49,4.2,4.2,0,0,1,2,.49,3.66,3.66,0,0,1,1.43,1.41,4.15,4.15,0,0,1,.53,2.1,4.05,4.05,0,0,1-.54,2.1,3.73,3.73,0,0,1-1.46,1.41,4.23,4.23,0,0,1-2.05.49A4.11,4.11,0,0,1,351.26,263.08Zm3-1.47a2,2,0,0,0,.75-.78,2.61,2.61,0,0,0,.28-1.26,2.32,2.32,0,0,0-.58-1.7,1.9,1.9,0,0,0-1.42-.6,1.87,1.87,0,0,0-1.41.6,2.36,2.36,0,0,0-.57,1.7,2.4,2.4,0,0,0,.56,1.7,1.81,1.81,0,0,0,1.39.6A2.07,2.07,0,0,0,354.28,261.61Z" transform="translate(-318.52 -212.85)"/><path d="M360.73,264.72a2.4,2.4,0,0,1-.64,1.86,2.69,2.69,0,0,1-1.83.56h-.86v-1.66H358a.91.91,0,0,0,.63-.18.74.74,0,0,0,.18-.56v-9.05h2Zm-1.84-10.28a1.14,1.14,0,0,1,0-1.64,1.3,1.3,0,0,1,1.73,0,1.18,1.18,0,0,1,0,1.64,1.3,1.3,0,0,1-1.73,0Z" transform="translate(-318.52 -212.85)"/><path d="M369.81,260.16h-5.67a1.94,1.94,0,0,0,.59,1.31A1.82,1.82,0,0,0,366,262a1.6,1.6,0,0,0,1.55-.94h2.11a3.5,3.5,0,0,1-1.28,1.84,3.79,3.79,0,0,1-2.34.72,4,4,0,0,1-2-.49,3.49,3.49,0,0,1-1.39-1.41,4.77,4.77,0,0,1,0-4.21,3.31,3.31,0,0,1,1.37-1.4,4.43,4.43,0,0,1,4,0,3.46,3.46,0,0,1,1.36,1.35,4.15,4.15,0,0,1,.48,2A4.42,4.42,0,0,1,369.81,260.16Zm-2-1.32a1.54,1.54,0,0,0-.55-1.21,1.94,1.94,0,0,0-1.3-.45,1.74,1.74,0,0,0-1.22.44,1.91,1.91,0,0,0-.61,1.22Z" transform="translate(-318.52 -212.85)"/><path d="M373.58,257.3v3.75a.73.73,0,0,0,.19.57.91.91,0,0,0,.64.18h.9v1.65h-1.23A2.16,2.16,0,0,1,371.6,261V257.3h-.92v-1.61h.92v-1.92h2v1.92h1.73v1.61Z" transform="translate(-318.52 -212.85)"/><path d="M380,257.46a3.44,3.44,0,0,1,4.52-1.57,2.94,2.94,0,0,1,1.1.88v-3.68h2v10.36h-2V262.3a2.71,2.71,0,0,1-1,.92,3.08,3.08,0,0,1-1.52.35,3.29,3.29,0,0,1-1.79-.5,3.53,3.53,0,0,1-1.28-1.42,4.46,4.46,0,0,1-.47-2.11A4.37,4.37,0,0,1,380,257.46Zm5.35.88a2,2,0,0,0-.76-.78,2,2,0,0,0-1-.27,1.92,1.92,0,0,0-1.75,1,2.36,2.36,0,0,0-.29,1.21,2.43,2.43,0,0,0,.29,1.23,2,2,0,0,0,.75.8,1.89,1.89,0,0,0,1,.28,2,2,0,0,0,1-.27,2,2,0,0,0,.76-.78,2.84,2.84,0,0,0,0-2.46Z" transform="translate(-318.52 -212.85)"/><path d="M396.71,260.16H391a1.89,1.89,0,0,0,.58,1.31,1.82,1.82,0,0,0,1.28.48,1.59,1.59,0,0,0,1.55-.94h2.12a3.58,3.58,0,0,1-1.29,1.84,3.79,3.79,0,0,1-2.34.72,4,4,0,0,1-2-.49,3.47,3.47,0,0,1-1.38-1.41,4.24,4.24,0,0,1-.5-2.1,4.33,4.33,0,0,1,.49-2.11,3.36,3.36,0,0,1,1.37-1.4,4.07,4.07,0,0,1,2-.49,4,4,0,0,1,2,.47,3.4,3.4,0,0,1,1.36,1.35,4.15,4.15,0,0,1,.48,2A5.81,5.81,0,0,1,396.71,260.16Zm-2-1.32a1.57,1.57,0,0,0-.54-1.21,2,2,0,0,0-1.31-.45,1.74,1.74,0,0,0-1.22.44,1.91,1.91,0,0,0-.61,1.22Z" transform="translate(-318.52 -212.85)"/><path d="M335.63,274.26a3.38,3.38,0,0,1,3.09-1.89,3.3,3.3,0,0,1,1.44.33,2.79,2.79,0,0,1,1.09.87v-3.68h2v10.36h-2V279.1a2.61,2.61,0,0,1-1,.92,3.13,3.13,0,0,1-1.52.35,3.33,3.33,0,0,1-1.8-.5,3.6,3.6,0,0,1-1.28-1.42,4.59,4.59,0,0,1-.47-2.11A4.49,4.49,0,0,1,335.63,274.26Zm5.36.89a1.93,1.93,0,0,0-.76-.79,2,2,0,0,0-1-.27,2.08,2.08,0,0,0-1,.26,2,2,0,0,0-.75.78,2.46,2.46,0,0,0-.28,1.21,2.54,2.54,0,0,0,.28,1.23,2,2,0,0,0,.76.8,1.89,1.89,0,0,0,1,.28,2,2,0,0,0,1-.27,2,2,0,0,0,.76-.78,2.63,2.63,0,0,0,.28-1.23A2.56,2.56,0,0,0,341,275.15Z" transform="translate(-318.52 -212.85)"/><path d="M345.29,271.24a1.16,1.16,0,0,1,0-1.64,1.2,1.2,0,0,1,.86-.33,1.17,1.17,0,0,1,.86.33,1.14,1.14,0,0,1,0,1.64,1.17,1.17,0,0,1-.86.33A1.2,1.2,0,0,1,345.29,271.24Zm1.83,1.25v7.76h-2v-7.76Z" transform="translate(-318.52 -212.85)"/><path d="M352.06,272.72a3.2,3.2,0,0,1,1.51-.35,3.33,3.33,0,0,1,1.8.49,3.45,3.45,0,0,1,1.28,1.39,4.5,4.5,0,0,1,.47,2.09,4.59,4.59,0,0,1-.47,2.11,3.6,3.6,0,0,1-1.28,1.42,3.25,3.25,0,0,1-1.8.5,3,3,0,0,1-1.5-.35,3.07,3.07,0,0,1-1.06-.88v4.8h-2V272.49h2v1.12A3,3,0,0,1,352.06,272.72Zm2.77,2.41a2,2,0,0,0-.76-.78,2.08,2.08,0,0,0-1-.26,2,2,0,0,0-1,.27,2,2,0,0,0-.76.79,2.71,2.71,0,0,0,0,2.44,2,2,0,0,0,.76.79,2,2,0,0,0,1,.27,1.9,1.9,0,0,0,1-.28,2,2,0,0,0,.76-.8,2.49,2.49,0,0,0,.28-1.23A2.46,2.46,0,0,0,354.83,275.13Z" transform="translate(-318.52 -212.85)"/><path d="M360.5,269.89v10.36h-2V269.89Z" transform="translate(-318.52 -212.85)"/><path d="M363.86,279.88a3.58,3.58,0,0,1-1.4-1.41,4.24,4.24,0,0,1-.51-2.1,4.14,4.14,0,0,1,.52-2.1,3.62,3.62,0,0,1,1.44-1.41,4.15,4.15,0,0,1,2-.49,4.2,4.2,0,0,1,2,.49,3.66,3.66,0,0,1,1.43,1.41,4.15,4.15,0,0,1,.53,2.1,4.05,4.05,0,0,1-.54,2.1,3.73,3.73,0,0,1-1.46,1.41,4.23,4.23,0,0,1-2.05.49A4.11,4.11,0,0,1,363.86,279.88Zm2.16-9.21-2.09,1.18v-1.43l2.09-1.13,2.07,1.13v1.43Zm.86,7.74a2,2,0,0,0,.75-.78,2.61,2.61,0,0,0,.28-1.26,2.32,2.32,0,0,0-.58-1.7,1.9,1.9,0,0,0-1.42-.6,1.87,1.87,0,0,0-1.41.6,2.36,2.36,0,0,0-.57,1.7,2.4,2.4,0,0,0,.56,1.7,1.81,1.81,0,0,0,1.39.6A2.07,2.07,0,0,0,366.88,278.41Z" transform="translate(-318.52 -212.85)"/><path d="M383.3,273.26a3.26,3.26,0,0,1,.88,2.44v4.55h-2V276a2,2,0,0,0-.46-1.39,1.91,1.91,0,0,0-2.53,0,1.93,1.93,0,0,0-.47,1.39v4.29h-2V276a1.93,1.93,0,0,0-.46-1.39,1.67,1.67,0,0,0-1.26-.48,1.7,1.7,0,0,0-1.28.48,1.89,1.89,0,0,0-.47,1.39v4.29h-2v-7.76h2v.94a2.56,2.56,0,0,1,1-.77,3,3,0,0,1,1.31-.28,3.29,3.29,0,0,1,1.62.39,2.65,2.65,0,0,1,1.11,1.09,2.83,2.83,0,0,1,1.1-1.07,3.13,3.13,0,0,1,1.56-.41A3.08,3.08,0,0,1,383.3,273.26Z" transform="translate(-318.52 -212.85)"/><path d="M393.19,277h-5.67a1.94,1.94,0,0,0,.59,1.31,1.82,1.82,0,0,0,1.28.48,1.6,1.6,0,0,0,1.55-.94h2.11a3.5,3.5,0,0,1-1.28,1.84,3.79,3.79,0,0,1-2.34.72,4,4,0,0,1-2-.49,3.49,3.49,0,0,1-1.39-1.41,4.77,4.77,0,0,1,0-4.21,3.31,3.31,0,0,1,1.37-1.4,4.07,4.07,0,0,1,2-.49,4.19,4.19,0,0,1,2,.47,3.46,3.46,0,0,1,1.36,1.35,4.15,4.15,0,0,1,.48,2A4.42,4.42,0,0,1,393.19,277Zm-2-1.32a1.54,1.54,0,0,0-.55-1.21,1.94,1.94,0,0,0-1.3-.45,1.74,1.74,0,0,0-1.22.44,1.86,1.86,0,0,0-.61,1.22Z" transform="translate(-318.52 -212.85)"/></svg>