<svg id="Calque_1" data-name="Calque 1" xmlns="http://www.w3.org/2000/svg" viewBox="0 0 155.53 112.81"><defs><style>.cls-1{fill:#d7a2ca;stroke-width:2px;}.cls-1,.cls-2{stroke:#000;stroke-miterlimit:10;}.cls-2{fill:#e9e670;stroke-width:0.25px;}</style></defs><path class="cls-1" d="M372.58,186c-42.4,1.49-76.85,25.25-77,53.09s34.18,49.19,76.58,47.7,76.85-25.25,76.95-53.08S415,184.52,372.58,186Zm67.67,48c-.09,22.61-30.54,42-68,43.32s-67.79-16-67.7-38.56,30.53-42,68-43.33S440.33,211.41,440.25,234Z" transform="translate(-294.62 -175.07)"/><path class="cls-1" d="M371.12,176.07c-41.85,0-75.12,20.5-74.32,45.84s35.37,45.9,77.22,45.93,75.12-20.5,74.32-45.84S413,176.1,371.12,176.07ZM439.55,222c.65,20.59-28.81,37.27-65.8,37.24s-67.51-16.73-68.16-37.32,28.81-37.26,65.8-37.23S438.9,201.41,439.55,222Z" transform="translate(-294.62 -175.07)"/><path class="cls-2" d="M245,141.28" transform="translate(-294.62 -175.07)"/><path d="M344.8,222v9.77h-2v-6.36l-2.62,6.36h-1.48l-2.64-6.36v6.36h-2V222h2.22l3.11,7.26,3.11-7.26Z" transform="translate(-294.62 -175.07)"/><path d="M353.89,228.43h-5.67a1.93,1.93,0,0,0,.58,1.32,1.85,1.85,0,0,0,1.28.47,1.59,1.59,0,0,0,1.55-.94h2.12a3.65,3.65,0,0,1-1.29,1.85,3.79,3.79,0,0,1-2.34.72,4,4,0,0,1-2-.5,3.56,3.56,0,0,1-1.39-1.41,4.29,4.29,0,0,1-.49-2.1,4.35,4.35,0,0,1,.49-2.11,3.31,3.31,0,0,1,1.37-1.4,4.07,4.07,0,0,1,2-.49,4.14,4.14,0,0,1,2,.47,3.36,3.36,0,0,1,1.36,1.36,4.08,4.08,0,0,1,.48,2A5.7,5.7,0,0,1,353.89,228.43Zm-2-1.32a1.58,1.58,0,0,0-.54-1.21,2,2,0,0,0-1.31-.45,1.79,1.79,0,0,0-1.22.44,1.91,1.91,0,0,0-.61,1.22Zm-.29-5.19-3.22,1.47V222l3.22-1.67Z" transform="translate(-294.62 -175.07)"/><path d="M355.33,225.73a3.38,3.38,0,0,1,3.09-1.89,3.27,3.27,0,0,1,1.44.33A2.88,2.88,0,0,1,361,225v-3.68h2v10.36h-2v-1.15a2.63,2.63,0,0,1-1,.93,3.22,3.22,0,0,1-1.52.35,3.33,3.33,0,0,1-1.8-.51,3.54,3.54,0,0,1-1.28-1.42,4.59,4.59,0,0,1-.47-2.11A4.52,4.52,0,0,1,355.33,225.73Zm5.36.89a2.06,2.06,0,0,0-.76-.79,2,2,0,0,0-1-.27,2,2,0,0,0-1.76,1,2.46,2.46,0,0,0-.28,1.21,2.54,2.54,0,0,0,.28,1.23,2.1,2.1,0,0,0,.76.8,1.89,1.89,0,0,0,1,.28,2,2,0,0,0,1-.27,2,2,0,0,0,.76-.78,2.82,2.82,0,0,0,0-2.45Z" transform="translate(-294.62 -175.07)"/><path d="M365,222.71a1.08,1.08,0,0,1-.34-.82,1.09,1.09,0,0,1,.34-.82,1.3,1.3,0,0,1,1.73,0,1.13,1.13,0,0,1,.34.82,1.12,1.12,0,0,1-.34.82,1.3,1.3,0,0,1-1.73,0Zm1.83,1.25v7.76h-2V224Z" transform="translate(-294.62 -175.07)"/><path d="M368.72,225.73a3.33,3.33,0,0,1,1.27-1.4,3.38,3.38,0,0,1,1.8-.49,3.19,3.19,0,0,1,1.52.35,3.11,3.11,0,0,1,1,.88V224h2v7.76h-2v-1.13a3,3,0,0,1-1,.9,3.17,3.17,0,0,1-1.53.36,3.28,3.28,0,0,1-1.79-.51,3.44,3.44,0,0,1-1.27-1.42,4.46,4.46,0,0,1-.47-2.11A4.4,4.4,0,0,1,368.72,225.73Zm5.35.89a2,2,0,0,0-1.78-1.06,2,2,0,0,0-1.75,1,2.46,2.46,0,0,0-.29,1.21,2.54,2.54,0,0,0,.29,1.23,2,2,0,0,0,.75.8,1.92,1.92,0,0,0,1,.28,2.06,2.06,0,0,0,1-.27,2,2,0,0,0,.75-.78,2.82,2.82,0,0,0,0-2.45Z" transform="translate(-294.62 -175.07)"/><path d="M380.53,225.57v3.76a.7.7,0,0,0,.19.56.88.88,0,0,0,.63.18h.91v1.65H381a2.16,2.16,0,0,1-2.48-2.41v-3.74h-.92V224h.92v-1.91h2V224h1.73v1.61Z" transform="translate(-294.62 -175.07)"/><path d="M386.62,224.2a2.8,2.8,0,0,1,1.4-.35v2.06h-.52a2.06,2.06,0,0,0-1.4.43,2,2,0,0,0-.46,1.52v3.86h-2V224h2v1.21A2.84,2.84,0,0,1,386.62,224.2Z" transform="translate(-294.62 -175.07)"/><path d="M389.3,225.73a3.33,3.33,0,0,1,1.27-1.4,3.38,3.38,0,0,1,1.8-.49,3.22,3.22,0,0,1,1.52.35,3.11,3.11,0,0,1,1,.88V224h2v7.76h-2v-1.13a3,3,0,0,1-1,.9,3.17,3.17,0,0,1-1.53.36,3.28,3.28,0,0,1-1.79-.51,3.44,3.44,0,0,1-1.27-1.42,4.46,4.46,0,0,1-.47-2.11A4.4,4.4,0,0,1,389.3,225.73Zm5.35.89a2.11,2.11,0,0,0-.75-.79,2.06,2.06,0,0,0-1-.27,2,2,0,0,0-1.75,1,2.46,2.46,0,0,0-.29,1.21,2.54,2.54,0,0,0,.29,1.23,2,2,0,0,0,.75.8,1.92,1.92,0,0,0,1,.28,2.06,2.06,0,0,0,1-.27,2,2,0,0,0,.75-.78,2.82,2.82,0,0,0,0-2.45Z" transform="translate(-294.62 -175.07)"/><path d="M398.81,225.74a3.46,3.46,0,0,1,1.36-1.4,3.85,3.85,0,0,1,2-.5,3.81,3.81,0,0,1,2.38.72,3.52,3.52,0,0,1,1.27,2H403.7a1.65,1.65,0,0,0-.57-.79,1.68,1.68,0,0,0-1-.29,1.64,1.64,0,0,0-1.33.61,2.7,2.7,0,0,0-.49,1.73,2.67,2.67,0,0,0,.49,1.72,1.64,1.64,0,0,0,1.33.61,1.51,1.51,0,0,0,1.56-1.07h2.11a3.6,3.6,0,0,1-1.27,2,3.74,3.74,0,0,1-2.38.75,4,4,0,0,1-2-.5,3.52,3.52,0,0,1-1.36-1.4,4.77,4.77,0,0,1,0-4.21Z" transform="translate(-294.62 -175.07)"/><path d="M409.53,225.57v3.76a.74.74,0,0,0,.19.56.92.92,0,0,0,.64.18h.91v1.65H410a2.16,2.16,0,0,1-2.48-2.41v-3.74h-.92V224h.92v-1.91h2V224h1.74v1.61Z" transform="translate(-294.62 -175.07)"/></svg>