<?xml version="1.0" encoding="utf-8"?>
<!-- Generator: Adobe Illustrator 26.0.1, SVG Export Plug-In . SVG Version: 6.00 Build 0)  -->
<svg version="1.1" xmlns="http://www.w3.org/2000/svg" xmlns:xlink="http://www.w3.org/1999/xlink" x="0px" y="0px"
	 viewBox="0 0 841.89 595.28" style="enable-background:new 0 0 841.89 595.28;" xml:space="preserve">
<style type="text/css">
	.st0{fill:#E9E671;stroke:#020203;stroke-width:2;stroke-miterlimit:10;}
</style>
<g id="Calque_1">
</g>
<g id="Calque_2">
	<path class="st0" d="M453.49,258.34c-40.05,0-72.51,32.46-72.51,72.51c0,40.05,32.46,72.51,72.51,72.51
		c40.05,0,72.51-32.46,72.51-72.51C526,290.8,493.54,258.34,453.49,258.34z M469.61,360.65c-5.35,20.08-6.04,18.95-6.04,18.95
		s-11.64-22.28-28.01-31.06s-26.62-11.03-26.62-11.03s21.53-14.47,28.58-25.72c7.06-11.26,14.18-29.7,14.18-29.7
		s6.06,16.6,20.45,27.54c14.4,10.94,33.9,14.71,33.9,14.71S474.96,340.57,469.61,360.65z"/>
</g>
</svg>
