<svg id="Calque_1" data-name="Calque 1" xmlns="http://www.w3.org/2000/svg" viewBox="0 0 149.67 149.67"><defs><style>.cls-1{fill:#e9e671;stroke:#000;stroke-miterlimit:10;}</style></defs><polygon class="cls-1" points="112.57 137.08 85.01 109.78 76.39 147.61 66.17 110.19 39.81 138.64 49.66 101.12 12.59 112.57 39.89 85.01 2.06 76.39 39.49 66.17 11.03 39.79 48.55 49.66 37.1 12.59 64.67 39.89 73.28 2.06 83.5 39.49 109.88 11.04 100.01 48.55 137.08 37.1 109.78 64.67 147.61 73.28 110.19 83.5 138.63 109.88 101.11 100.02 112.57 137.08"/><path d="M156.53,172.46v7h-1.4V174.9l-1.87,4.54H152.2l-1.88-4.54v4.54h-1.4v-7h1.59l2.22,5.19,2.22-5.19Z" transform="translate(-108.27 -101.04)"/><path d="M158.93,179.17a2.56,2.56,0,0,1-1-1,3.08,3.08,0,0,1-.36-1.5,2.93,2.93,0,0,1,.37-1.5,2.63,2.63,0,0,1,1-1,3.18,3.18,0,0,1,2.9,0,2.61,2.61,0,0,1,1,1,2.93,2.93,0,0,1,.38,1.5,2.89,2.89,0,0,1-.39,1.5,2.57,2.57,0,0,1-1,1,3,3,0,0,1-1.46.36A2.9,2.9,0,0,1,158.93,179.17Zm2.15-1a1.3,1.3,0,0,0,.54-.55,1.93,1.93,0,0,0,.2-.9,1.67,1.67,0,0,0-.42-1.22,1.42,1.42,0,0,0-2,0,2.07,2.07,0,0,0,0,2.43,1.3,1.3,0,0,0,1,.43A1.38,1.38,0,0,0,161.08,178.12Z" transform="translate(-108.27 -101.04)"/><path d="M165.92,175.05v2.68a.52.52,0,0,0,.13.4.65.65,0,0,0,.46.13h.65v1.18h-.88a1.55,1.55,0,0,1-1.77-1.72v-2.67h-.66V173.9h.66v-1.37h1.41v1.37h1.24v1.15Z" transform="translate(-108.27 -101.04)"/><path d="M168.26,173a.77.77,0,0,1-.24-.58.79.79,0,0,1,.24-.59.9.9,0,0,1,.62-.23.85.85,0,0,1,.61.23.76.76,0,0,1,.25.59.74.74,0,0,1-.25.58.82.82,0,0,1-.61.24A.86.86,0,0,1,168.26,173Zm1.31.9v5.54h-1.4V173.9Z" transform="translate(-108.27 -101.04)"/><path d="M172,179.17a2.56,2.56,0,0,1-1-1,3.08,3.08,0,0,1-.36-1.5,2.93,2.93,0,0,1,.37-1.5,2.63,2.63,0,0,1,1-1,3.18,3.18,0,0,1,2.9,0,2.61,2.61,0,0,1,1,1,2.93,2.93,0,0,1,.38,1.5,2.89,2.89,0,0,1-.39,1.5,2.57,2.57,0,0,1-1,1,3,3,0,0,1-1.46.36A2.9,2.9,0,0,1,172,179.17Zm2.15-1a1.3,1.3,0,0,0,.54-.55,1.93,1.93,0,0,0,.2-.9,1.67,1.67,0,0,0-.42-1.22,1.42,1.42,0,0,0-2,0,2.07,2.07,0,0,0,0,2.43,1.3,1.3,0,0,0,1,.43A1.38,1.38,0,0,0,174.12,178.12Z" transform="translate(-108.27 -101.04)"/><path d="M182,174.44a2.39,2.39,0,0,1,.61,1.75v3.25h-1.4v-3.06a1.46,1.46,0,0,0-.33-1,1.19,1.19,0,0,0-.9-.35,1.24,1.24,0,0,0-.92.35,1.46,1.46,0,0,0-.33,1v3.06h-1.4V173.9h1.4v.69a2,2,0,0,1,.71-.57,2.32,2.32,0,0,1,1-.2A2.16,2.16,0,0,1,182,174.44Z" transform="translate(-108.27 -101.04)"/><path d="M186.29,175.16a2.43,2.43,0,0,1,2.21-1.35,2.46,2.46,0,0,1,1,.23,2.05,2.05,0,0,1,.78.63V172h1.42v7.4h-1.42v-.82a2,2,0,0,1-.73.66,2.48,2.48,0,0,1-2.37-.11,2.53,2.53,0,0,1-.92-1,3.28,3.28,0,0,1-.33-1.5A3.24,3.24,0,0,1,186.29,175.16Zm3.83.63a1.39,1.39,0,0,0-.54-.56,1.45,1.45,0,0,0-.73-.19,1.39,1.39,0,0,0-.72.19,1.43,1.43,0,0,0-.54.55,1.83,1.83,0,0,0-.2.87,1.86,1.86,0,0,0,.2.87,1.59,1.59,0,0,0,.54.58,1.41,1.41,0,0,0,1.45,0,1.33,1.33,0,0,0,.54-.56,1.8,1.8,0,0,0,.2-.87A1.87,1.87,0,0,0,190.12,175.79Z" transform="translate(-108.27 -101.04)"/><path d="M198.21,177.09h-4.05a1.36,1.36,0,0,0,.42.94,1.33,1.33,0,0,0,.91.34,1.15,1.15,0,0,0,1.11-.67h1.51a2.53,2.53,0,0,1-.92,1.31,2.64,2.64,0,0,1-1.67.52,2.9,2.9,0,0,1-1.44-.36,2.51,2.51,0,0,1-1-1,3.19,3.19,0,0,1-.35-1.5,3.15,3.15,0,0,1,.35-1.51,2.36,2.36,0,0,1,1-1,3.14,3.14,0,0,1,2.86,0,2.36,2.36,0,0,1,1,1,3.26,3.26,0,0,1,.31,2Zm-1.41-.94a1.15,1.15,0,0,0-.39-.87,1.4,1.4,0,0,0-.93-.32,1.28,1.28,0,0,0-.88.31,1.39,1.39,0,0,0-.43.88Z" transform="translate(-108.27 -101.04)"/><path d="M200.17,179.28a2.13,2.13,0,0,1-.86-.66,1.68,1.68,0,0,1-.34-.93h1.41a.79.79,0,0,0,.31.53,1.11,1.11,0,0,0,.69.21,1.09,1.09,0,0,0,.62-.16.5.5,0,0,0,.23-.41.43.43,0,0,0-.28-.41,4.54,4.54,0,0,0-.87-.29,9.23,9.23,0,0,1-1-.31,1.82,1.82,0,0,1-.68-.49,1.32,1.32,0,0,1-.28-.89,1.46,1.46,0,0,1,.26-.84,1.7,1.7,0,0,1,.76-.6,2.81,2.81,0,0,1,1.17-.22,2.37,2.37,0,0,1,1.58.49,1.86,1.86,0,0,1,.65,1.34h-1.34a.72.72,0,0,0-.28-.53,1.25,1.25,0,0,0-1.24-.05.47.47,0,0,0,.08.81,4.24,4.24,0,0,0,.87.3,6.93,6.93,0,0,1,1,.31,1.69,1.69,0,0,1,.67.49,1.4,1.4,0,0,1,.3.89,1.46,1.46,0,0,1-.27.86,1.7,1.7,0,0,1-.76.59,2.74,2.74,0,0,1-1.15.22A2.83,2.83,0,0,1,200.17,179.28Z" transform="translate(-108.27 -101.04)"/><path d="M204.81,173a.77.77,0,0,1-.24-.58.79.79,0,0,1,.24-.59.9.9,0,0,1,.62-.23.85.85,0,0,1,.61.23.76.76,0,0,1,.25.59.74.74,0,0,1-.25.58.82.82,0,0,1-.61.24A.86.86,0,0,1,204.81,173Zm1.31.9v5.54h-1.4V173.9Z" transform="translate(-108.27 -101.04)"/><path d="M210.76,174.05a2.11,2.11,0,0,1,.74.64v-.79h1.41v5.58a2.91,2.91,0,0,1-.31,1.37,2.27,2.27,0,0,1-.93,1,2.92,2.92,0,0,1-1.5.36,3.27,3.27,0,0,1-1.94-.55,2.07,2.07,0,0,1-.85-1.5h1.39a1,1,0,0,0,.47.6,1.68,1.68,0,0,0,.89.23,1.34,1.34,0,0,0,1-.37,1.47,1.47,0,0,0,.38-1.1v-.86a2.18,2.18,0,0,1-.75.65,2.21,2.21,0,0,1-1.08.26,2.38,2.38,0,0,1-1.28-.36,2.53,2.53,0,0,1-.92-1,3.28,3.28,0,0,1-.33-1.5,3.24,3.24,0,0,1,.33-1.49,2.46,2.46,0,0,1,.91-1,2.41,2.41,0,0,1,1.29-.35A2.37,2.37,0,0,1,210.76,174.05Zm.54,1.74a1.39,1.39,0,0,0-.54-.56A1.45,1.45,0,0,0,210,175a1.39,1.39,0,0,0-.72.19,1.43,1.43,0,0,0-.54.55,1.83,1.83,0,0,0-.2.87,1.86,1.86,0,0,0,.2.87,1.59,1.59,0,0,0,.54.58,1.41,1.41,0,0,0,1.45,0,1.33,1.33,0,0,0,.54-.56,1.8,1.8,0,0,0,.2-.87A1.87,1.87,0,0,0,211.3,175.79Z" transform="translate(-108.27 -101.04)"/><path d="M219,174.44a2.43,2.43,0,0,1,.61,1.75v3.25h-1.4v-3.06a1.46,1.46,0,0,0-.33-1,1.19,1.19,0,0,0-.9-.35,1.24,1.24,0,0,0-.92.35,1.46,1.46,0,0,0-.33,1v3.06h-1.4V173.9h1.4v.69a1.91,1.91,0,0,1,.71-.57,2.32,2.32,0,0,1,1-.2A2.16,2.16,0,0,1,219,174.44Z" transform="translate(-108.27 -101.04)"/></svg>