<svg id="Calque_1" data-name="Calque 1" xmlns="http://www.w3.org/2000/svg" viewBox="0 0 187.99 188.34"><defs><style>.cls-1{fill:none;stroke:#000;stroke-miterlimit:10;stroke-width:2px;}.cls-2{fill:#1d1d1b;}</style></defs><path class="cls-1" d="M352.08,254.89c-3.7-15.1-1.39-29.59,6.81-36.42a38.7,38.7,0,0,1,11.57-6.13,32.18,32.18,0,0,1,14.64-2,33.72,33.72,0,0,1,15.66,6.47c3.78,3,5.43,6,8.51,5.78,2.24-.16,3.5-1.89,5.11-3.4,5.4-5.11,12.6-5.91,17.7-6.47a37.34,37.34,0,0,1,20.76,3.75c4.93,2.5,10.64,5.4,12.6,11.23,1.88,5.59-.8,10.54,2,12.6,1.61,1.16,3.53.33,6.13,0,9.08-1.18,16.92,4.91,18,5.78,9.6,7.45,9.82,20.48,9.87,23.49.09,4.89.5,10.71-3.06,15-.89,1.08-2.41,2.51-5.45,6.13-2.5,3-3.27,4.15-3.74,5.79-.23.8-1.13,3.9.34,6.46,1.14,2,2.94,2.32,4.77,3.41,3.58,2.14,4.79,5.81,7.14,12.93,1.4,4.23,3,9,3.07,15.32.06,4.2.31,20.41-11.24,28.6-1.72,1.22-8,5.65-15.32,4.77-4-.49-6-2.28-10.89-1.71-1.55.18-5.56.71-8.17,3.75a10.17,10.17,0,0,0-2,4.08c-2.14,7.1-10.4,12.19-13.28,14a36.06,36.06,0,0,1-21.45,5.45c-4.83-.36-13.67-1-18.38-7.15-2.47-3.23-2.42-6.16-6.13-8.51a12.3,12.3,0,0,0-8.51-1.7c-3.22.63-4.39,2.5-6.8,4.08-4.89,3.19-10.55,2.38-17.71,1.36-5.68-.81-12.86-1.83-19.74-7.49a31,31,0,0,1-10.55-16.34c-.88-3.53-2.57-10.3.68-16.34,2.45-4.56,5.71-5,6.46-9.19.19-1.05.48-3.76-3.06-10.21-3.38-6.17-6.62-9.14-8.51-11.58-7.88-10.13-7.12-29.89,1.36-39.15.47-.5,5.19-4.19,14.64-11.57Z" transform="translate(-323.47 -209.11)"/><path class="cls-1" d="M357.93,257.81c-3.69-15.1-1.38-29.59,6.81-36.42a38.9,38.9,0,0,1,11.58-6.13,32.16,32.16,0,0,1,14.64-2,33.6,33.6,0,0,1,15.65,6.47c3.79,3,5.43,6,8.52,5.78,2.24-.16,3.5-1.89,5.1-3.4,5.4-5.11,12.61-5.91,17.7-6.47a37.36,37.36,0,0,1,20.77,3.75c4.93,2.5,10.63,5.4,12.6,11.23,1.88,5.59-.81,10.54,2,12.6,1.61,1.16,3.53.33,6.13,0,9.07-1.18,16.91,4.91,18,5.78,9.6,7.45,9.82,20.48,9.87,23.49.08,4.89.5,10.71-3.06,15-.9,1.08-2.41,2.5-5.45,6.13-2.5,3-3.27,4.15-3.74,5.79-.24.8-1.13,3.9.34,6.46,1.14,2,2.94,2.32,4.76,3.41,3.59,2.14,4.8,5.81,7.15,12.93,1.4,4.23,3,9,3.06,15.32.07,4.2.31,20.41-11.23,28.6-1.72,1.22-8,5.65-15.32,4.77-4-.49-6-2.28-10.89-1.71-1.55.18-5.57.71-8.17,3.75a10.17,10.17,0,0,0-2,4.08c-2.14,7.1-10.4,12.19-13.28,14a36.08,36.08,0,0,1-21.45,5.45c-4.83-.36-13.67-1-18.38-7.15-2.48-3.23-2.42-6.16-6.13-8.51A12.31,12.31,0,0,0,395,379c-3.22.63-4.39,2.5-6.81,4.08-4.88,3.19-10.55,2.38-17.7,1.36-5.68-.81-12.87-1.83-19.74-7.49a31,31,0,0,1-10.56-16.34c-.88-3.53-2.56-10.3.68-16.34,2.46-4.57,5.72-5,6.47-9.19.19-1,.47-3.76-3.06-10.21-3.38-6.17-6.62-9.14-8.51-11.58-7.88-10.13-7.13-29.89,1.36-39.15.46-.5,5.19-4.19,14.64-11.57Z" transform="translate(-323.47 -209.11)"/><path class="cls-2" d="M392.11,298.23V308h-2v-9.77Z" transform="translate(-323.47 -209.11)"/><path class="cls-2" d="M406,301a3.33,3.33,0,0,1,.87,2.45V308h-2v-4.29a1.93,1.93,0,0,0-.46-1.39,1.67,1.67,0,0,0-1.26-.48,1.71,1.71,0,0,0-1.27.48,1.93,1.93,0,0,0-.46,1.39V308h-2v-4.29a1.93,1.93,0,0,0-.47-1.39,1.64,1.64,0,0,0-1.26-.48,1.7,1.7,0,0,0-1.28.48,1.93,1.93,0,0,0-.47,1.39V308h-2v-7.76h2v.94a2.67,2.67,0,0,1,1-.77,3,3,0,0,1,1.31-.28,3.46,3.46,0,0,1,1.62.38,2.8,2.8,0,0,1,1.11,1.1,2.81,2.81,0,0,1,1.09-1.07,3.17,3.17,0,0,1,1.57-.41A3.13,3.13,0,0,1,406,301Z" transform="translate(-323.47 -209.11)"/><path class="cls-2" d="M408.68,302a3.35,3.35,0,0,1,3.07-1.89,3.08,3.08,0,0,1,1.52.35,2.91,2.91,0,0,1,1,.88v-1.11h2V308h-2v-1.14a2.81,2.81,0,0,1-1,.91,3.26,3.26,0,0,1-1.53.35,3.29,3.29,0,0,1-1.79-.5,3.58,3.58,0,0,1-1.27-1.42,4.62,4.62,0,0,1-.47-2.11A4.49,4.49,0,0,1,408.68,302Zm5.36.88a2,2,0,0,0-.76-.78,2.08,2.08,0,0,0-2,0,2,2,0,0,0-.75.78,2.43,2.43,0,0,0-.29,1.21,2.54,2.54,0,0,0,.29,1.23,2,2,0,0,0,.76.8,1.87,1.87,0,0,0,1,.28,2,2,0,0,0,1-.27,1.93,1.93,0,0,0,.76-.79,2.56,2.56,0,0,0,.27-1.22A2.63,2.63,0,0,0,414,302.89Z" transform="translate(-323.47 -209.11)"/><path class="cls-2" d="M422.77,300.46a2.84,2.84,0,0,1,1,.89v-1.11h2v7.81a4.18,4.18,0,0,1-.43,1.93,3.25,3.25,0,0,1-1.31,1.34,4.13,4.13,0,0,1-2.1.5,4.47,4.47,0,0,1-2.7-.77A2.82,2.82,0,0,1,418,309H420a1.51,1.51,0,0,0,.67.85,2.31,2.31,0,0,0,1.24.31,1.94,1.94,0,0,0,1.39-.51,2.08,2.08,0,0,0,.53-1.55v-1.2a3,3,0,0,1-1.05.91,3.13,3.13,0,0,1-1.52.36,3.29,3.29,0,0,1-1.79-.5,3.53,3.53,0,0,1-1.28-1.42,4.62,4.62,0,0,1-.47-2.11,4.49,4.49,0,0,1,.47-2.08,3.38,3.38,0,0,1,3.07-1.89A3.25,3.25,0,0,1,422.77,300.46Zm.76,2.43a2,2,0,0,0-.76-.78,2.08,2.08,0,0,0-2,0,2,2,0,0,0-.75.78,2.43,2.43,0,0,0-.29,1.21,2.54,2.54,0,0,0,.29,1.23,2,2,0,0,0,.76.8,1.87,1.87,0,0,0,1,.28,2,2,0,0,0,1-.27,1.93,1.93,0,0,0,.76-.79,2.56,2.56,0,0,0,.28-1.22A2.63,2.63,0,0,0,423.53,302.89Z" transform="translate(-323.47 -209.11)"/><path class="cls-2" d="M434.85,304.71h-5.67a1.89,1.89,0,0,0,.59,1.31,1.81,1.81,0,0,0,1.27.48,1.6,1.6,0,0,0,1.56-.94h2.11a3.47,3.47,0,0,1-1.29,1.84,3.74,3.74,0,0,1-2.33.72,4,4,0,0,1-2-.49,3.43,3.43,0,0,1-1.39-1.41,4.35,4.35,0,0,1-.5-2.1,4.44,4.44,0,0,1,.49-2.11,3.39,3.39,0,0,1,1.38-1.4,4.43,4.43,0,0,1,4,0,3.46,3.46,0,0,1,1.36,1.35,4.15,4.15,0,0,1,.48,2A4.42,4.42,0,0,1,434.85,304.71Zm-2-1.32a1.54,1.54,0,0,0-.55-1.21,1.94,1.94,0,0,0-1.3-.45,1.73,1.73,0,0,0-1.22.44,1.86,1.86,0,0,0-.61,1.22Z" transform="translate(-323.47 -209.11)"/><path class="cls-2" d="M437.6,307.78a3,3,0,0,1-1.2-.93,2.33,2.33,0,0,1-.48-1.3h2a1.07,1.07,0,0,0,.44.74,1.8,1.8,0,0,0,1.84.07.67.67,0,0,0,.31-.57.6.6,0,0,0-.38-.57,7.19,7.19,0,0,0-1.23-.41,10.18,10.18,0,0,1-1.42-.44,2.48,2.48,0,0,1-.95-.68,1.84,1.84,0,0,1-.4-1.25,2,2,0,0,1,.37-1.18,2.58,2.58,0,0,1,1.06-.84,4.12,4.12,0,0,1,1.63-.3,3.35,3.35,0,0,1,2.22.69,2.57,2.57,0,0,1,.91,1.87h-1.88a1.05,1.05,0,0,0-.38-.74,1.46,1.46,0,0,0-.92-.27,1.44,1.44,0,0,0-.82.2.62.62,0,0,0-.29.54.65.65,0,0,0,.39.6,6.77,6.77,0,0,0,1.22.41,12.47,12.47,0,0,1,1.39.43,2.37,2.37,0,0,1,.94.7,1.87,1.87,0,0,1,.42,1.24A2.13,2.13,0,0,1,442,307a2.51,2.51,0,0,1-1.07.83,4.47,4.47,0,0,1-3.32,0Z" transform="translate(-323.47 -209.11)"/></svg>