<svg xmlns="http://www.w3.org/2000/svg" viewBox="0 0 283.26 214.41"><defs><style>.cls-1{fill:#fff;}.cls-2{fill:none;stroke:#000;stroke-miterlimit:10;stroke-width:2px;}.cls-3{font-size:14px;font-family:Poppins-Bold, Poppins;font-weight:700;}</style></defs><g id="Calque_2" data-name="Calque 2"><path class="cls-1" d="M388.18,297.64" transform="translate(-227.4 -154.64)"/><path class="cls-1" d="M389,298.7" transform="translate(-227.4 -154.64)"/><path class="cls-2" d="M272.49,224.52c-13.79-4.88-24.33-8.77-24.33-8.77l6.55-25.45s21.52,5.66,40.13,18.61,27.49,23,27.49,23-9.08-33-16-42.08l-11.91-19.56L315.56,156s15,22.18,22.29,49,7.49,32.37,7.49,32.37,19.19-39.16,20.65-47.9,6.28-23.91,6.28-23.91l24.31,5.77S381.2,218.88,377,224.26,360,252.74,360,252.74s37.9-5.86,55.33-14.51S433.93,230,433.93,230l9.62,23.5S413.88,265.93,403.6,267s-43.38,7-43.38,7,22.72,16.61,37.52,22.17a266.48,266.48,0,0,1,28.44,12.89L417,331.7,384,315.91s-25.42-16.5-27.24-18.13-8.42-6.35-8.42-6.35,8.58,26.22,12.79,34,17.54,27.66,17.54,27.66l-21.56,14.47S344.92,343.9,341,333s-10.54-32.69-10.54-32.69l-3.37-16-8.43,13.77s-8.54,20.95-9.94,28.3-6.85,30.46-6.85,30.46l-24.4-4.61s5.23-30.48,13-44.63,20.63-34.95,22.89-37.31.17-2.33.17-2.33-38.73,6.66-47.39,11.44-24.52,11.14-24.52,11.14l-12.85-21.53s12.68-7.82,35.85-13a486.33,486.33,0,0,1,49-7.82S286.29,229.4,272.49,224.52Z" transform="translate(-227.4 -154.64)"/></g><g id="Calque_3" data-name="Calque 3"><text class="cls-3" transform="translate(84.11 109.86)">Héloïse</text></g></svg>