<svg xmlns="http://www.w3.org/2000/svg" viewBox="0 0 199.52 234.01"><defs><style>.cls-1{fill:#939fd1;stroke-width:0.75px;}.cls-1,.cls-2{stroke:#000;stroke-miterlimit:10;}.cls-2{fill:none;}</style></defs><g id="Calque_1" data-name="Calque 1"><path class="cls-1" d="M338,278.79s7.45-20.07,16.63-20.07,16.07,10.59,18.93,20.63,0,48.49,0,48.49l-2.29,14.49s-5.74,18.39,12.05-2.23a371.11,371.11,0,0,1,35.56-35.8L448.7,300s11.48,6.88,8,12.08-13.2,33.12-32.13,37.83l-26.93,17.53L385,371.87s-10.33,3.35,5.16,7.81,43.6,22.85,43.6,22.85L451,422s5.88,3.34,6.38,20.06-30.47,3.35-30.47,3.35l-33.28-22.3-18.36-20.06s-6.31-2.23-2.86,9.47,7.45,37.95,7.45,37.95S383,479.45,364.51,490,338,464.4,338,464.4l5.16-61.31L342,397,330,410.89,315,430.4,303,441l-24.09,7.24s-19.51,8.92-18.36-13.93,41.88-41.25,41.88-41.25l27-13.37s4.59-3.35-12.05-12.82-42.45-23.41-42.45-23.41l-14.39-25.09S250.21,295.51,277.75,300s49.91,36.79,49.91,36.79l7.46,10Z" transform="translate(-258.24 -258.35)"/><path class="cls-2" d="M398.45,242.4" transform="translate(-258.24 -258.35)"/></g><g id="Calque_2" data-name="Calque 2"><path d="M336.72,359.61l-2.14,7.67h-1.82l-1.44-5.46-1.51,5.46-1.8,0-2.07-7.69h1.65l1.36,6,1.56-6h1.71l1.48,5.92,1.36-5.92Z" transform="translate(-258.24 -258.35)"/><path d="M343.34,364.7h-4.45a1.53,1.53,0,0,0,.46,1,1.43,1.43,0,0,0,1,.38,1.26,1.26,0,0,0,1.22-.74h1.66a2.74,2.74,0,0,1-1,1.45,3,3,0,0,1-1.83.56,3.16,3.16,0,0,1-1.58-.39,2.75,2.75,0,0,1-1.09-1.1,3.41,3.41,0,0,1-.39-1.65,3.51,3.51,0,0,1,.38-1.66,2.66,2.66,0,0,1,1.08-1.1,3.41,3.41,0,0,1,3.15,0,2.54,2.54,0,0,1,1.07,1.06,3.2,3.2,0,0,1,.38,1.57A3.64,3.64,0,0,1,343.34,364.7Zm-1.55-1a1.2,1.2,0,0,0-.43-1,1.49,1.49,0,0,0-1-.35,1.39,1.39,0,0,0-1,.34,1.53,1.53,0,0,0-.48,1Z" transform="translate(-258.24 -258.35)"/><path d="M346.87,361.37a2.46,2.46,0,0,1,1.19-.28,2.66,2.66,0,0,1,1.42.39,2.71,2.71,0,0,1,1,1.09,3.58,3.58,0,0,1,.37,1.65,3.64,3.64,0,0,1-.37,1.65,2.87,2.87,0,0,1-1,1.12,2.66,2.66,0,0,1-1.42.39,2.52,2.52,0,0,1-1.19-.27,2.34,2.34,0,0,1-.82-.7v.87h-1.54v-8.14h1.54v2.94A2.19,2.19,0,0,1,346.87,361.37Zm2.18,1.89a1.6,1.6,0,0,0-.6-.61,1.56,1.56,0,0,0-.79-.21,1.5,1.5,0,0,0-.79.22,1.54,1.54,0,0,0-.59.62,2.1,2.1,0,0,0,0,1.91,1.56,1.56,0,0,0,.59.63,1.58,1.58,0,0,0,.79.21,1.47,1.47,0,0,0,.79-.22,1.65,1.65,0,0,0,.6-.63,2.2,2.2,0,0,0,0-1.92Z" transform="translate(-258.24 -258.35)"/><path d="M354.56,362.58a2.61,2.61,0,0,1,1-1.1,2.68,2.68,0,0,1,1.42-.39,2.64,2.64,0,0,1,1.14.26,2.27,2.27,0,0,1,.86.69v-2.9h1.56v8.14H359v-.9a2.21,2.21,0,0,1-.81.73,2.53,2.53,0,0,1-1.2.27,2.67,2.67,0,0,1-1.41-.39,2.79,2.79,0,0,1-1-1.12,3.52,3.52,0,0,1-.37-1.65A3.45,3.45,0,0,1,354.56,362.58Zm4.21.69a1.6,1.6,0,0,0-.6-.61,1.51,1.51,0,0,0-.8-.22,1.53,1.53,0,0,0-.79.21,1.57,1.57,0,0,0-.59.61,2,2,0,0,0-.23,1,2,2,0,0,0,.23,1,1.71,1.71,0,0,0,.59.63,1.5,1.5,0,0,0,.79.22,1.59,1.59,0,0,0,.8-.21,1.63,1.63,0,0,0,.6-.62,2.23,2.23,0,0,0,0-1.93Z" transform="translate(-258.24 -258.35)"/><path d="M367.67,364.7h-4.46a1.53,1.53,0,0,0,.46,1,1.43,1.43,0,0,0,1,.38,1.25,1.25,0,0,0,1.22-.74h1.67a2.81,2.81,0,0,1-1,1.45,3,3,0,0,1-1.83.56,3.16,3.16,0,0,1-1.58-.39,2.75,2.75,0,0,1-1.09-1.1,3.41,3.41,0,0,1-.39-1.65,3.51,3.51,0,0,1,.38-1.66,2.66,2.66,0,0,1,1.08-1.1,3.41,3.41,0,0,1,3.15,0,2.54,2.54,0,0,1,1.07,1.06,3.2,3.2,0,0,1,.38,1.57A5.32,5.32,0,0,1,367.67,364.7Zm-1.56-1a1.23,1.23,0,0,0-.42-1,1.52,1.52,0,0,0-1-.35,1.39,1.39,0,0,0-1,.34,1.53,1.53,0,0,0-.48,1Z" transform="translate(-258.24 -258.35)"/><path d="M369.82,367.11a2.39,2.39,0,0,1-.94-.73,1.85,1.85,0,0,1-.38-1h1.55a.85.85,0,0,0,.35.58,1.16,1.16,0,0,0,.75.23,1.23,1.23,0,0,0,.69-.17.55.55,0,0,0,.25-.45.48.48,0,0,0-.31-.45,5,5,0,0,0-1-.32,7.77,7.77,0,0,1-1.11-.35,1.87,1.87,0,0,1-.75-.53,1.46,1.46,0,0,1-.32-1,1.56,1.56,0,0,1,.3-.93,1.91,1.91,0,0,1,.83-.66,3.14,3.14,0,0,1,1.28-.24,2.62,2.62,0,0,1,1.74.54,2.08,2.08,0,0,1,.72,1.47H372a.77.77,0,0,0-.3-.57,1.09,1.09,0,0,0-.72-.22,1.06,1.06,0,0,0-.64.16.48.48,0,0,0-.23.42.49.49,0,0,0,.31.47,4.29,4.29,0,0,0,1,.33,7.36,7.36,0,0,1,1.08.34,1.9,1.9,0,0,1,.75.54,1.52,1.52,0,0,1,.32,1,1.63,1.63,0,0,1-.29.94,1.89,1.89,0,0,1-.84.66,3.27,3.27,0,0,1-1.27.23A3.21,3.21,0,0,1,369.82,367.11Z" transform="translate(-258.24 -258.35)"/><path d="M374.93,360.21a.88.88,0,0,1-.27-.65.84.84,0,0,1,.27-.64,1,1,0,0,1,.68-.26.94.94,0,0,1,.67.26.84.84,0,0,1,.27.64.88.88,0,0,1-.27.65.93.93,0,0,1-.67.25A1,1,0,0,1,374.93,360.21Zm1.44,1v6.09h-1.54v-6.09Z" transform="translate(-258.24 -258.35)"/><path d="M381.47,361.36a2.14,2.14,0,0,1,.81.7v-.87h1.56v6.14a3.23,3.23,0,0,1-.35,1.51,2.48,2.48,0,0,1-1,1.06,3.25,3.25,0,0,1-1.65.39,3.51,3.51,0,0,1-2.13-.61,2.26,2.26,0,0,1-.94-1.65h1.53a1.18,1.18,0,0,0,.52.67,1.9,1.9,0,0,0,1,.24,1.51,1.51,0,0,0,1.09-.4,1.58,1.58,0,0,0,.41-1.21v-.95a2.23,2.23,0,0,1-.82.72,2.41,2.41,0,0,1-1.19.28,2.67,2.67,0,0,1-1.41-.39,2.79,2.79,0,0,1-1-1.12,3.52,3.52,0,0,1-.37-1.65,3.45,3.45,0,0,1,.37-1.64,2.65,2.65,0,0,1,2.41-1.49A2.53,2.53,0,0,1,381.47,361.36Zm.59,1.91a1.51,1.51,0,0,0-.59-.61,1.58,1.58,0,0,0-1.59,0,1.57,1.57,0,0,0-.59.61,2,2,0,0,0-.23,1,2,2,0,0,0,.23,1,1.71,1.71,0,0,0,.59.63,1.5,1.5,0,0,0,.79.22,1.62,1.62,0,0,0,.8-.21,1.53,1.53,0,0,0,.59-.62,2.23,2.23,0,0,0,0-1.93Z" transform="translate(-258.24 -258.35)"/><path d="M390.48,361.79a2.63,2.63,0,0,1,.67,1.92v3.57h-1.54v-3.36a1.59,1.59,0,0,0-.36-1.12,1.28,1.28,0,0,0-1-.39,1.33,1.33,0,0,0-1,.39,1.59,1.59,0,0,0-.37,1.12v3.36h-1.54v-6.09h1.54V362a2.1,2.1,0,0,1,.79-.62,2.45,2.45,0,0,1,1.05-.23A2.34,2.34,0,0,1,390.48,361.79Z" transform="translate(-258.24 -258.35)"/></g></svg>