<svg id="Calque_1" data-name="Calque 1" xmlns="http://www.w3.org/2000/svg" viewBox="0 0 185.99 191.34"><defs><style>.cls-1{fill:none;stroke:#1d1d1b;stroke-miterlimit:10;stroke-width:2px;}</style></defs><path class="cls-1" d="M349.15,255.77c-3.7-15.1-1.39-29.6,6.81-36.43a38.83,38.83,0,0,1,11.57-6.13,32.18,32.18,0,0,1,14.64-2,33.66,33.66,0,0,1,15.66,6.47c3.78,3,5.43,6,8.51,5.79,2.24-.17,3.51-1.89,5.11-3.41,5.4-5.11,12.6-5.9,17.7-6.47a37.44,37.44,0,0,1,20.76,3.75c4.93,2.5,10.64,5.4,12.6,11.23,1.88,5.59-.8,10.54,2,12.6,1.62,1.16,3.53.33,6.13,0,9.08-1.17,16.92,4.91,18,5.78,9.6,7.45,9.82,20.48,9.88,23.49.08,4.89.49,10.71-3.07,15-.89,1.08-2.41,2.51-5.44,6.13-2.51,3-3.28,4.16-3.75,5.79-.23.81-1.13,3.9.34,6.47,1.15,2,2.94,2.31,4.77,3.4,3.58,2.14,4.79,5.81,7.15,12.94,1.39,4.22,3,9,3.06,15.32.06,4.2.31,20.4-11.23,28.59-1.73,1.22-8,5.65-15.32,4.77-4-.49-6-2.28-10.9-1.7-1.55.18-5.56.7-8.17,3.74a10.31,10.31,0,0,0-2,4.08c-2.13,7.1-10.4,12.19-13.28,14a36,36,0,0,1-21.44,5.45c-4.84-.35-13.67-1-18.39-7.15-2.47-3.23-2.42-6.16-6.12-8.51a12.39,12.39,0,0,0-8.51-1.7c-3.23.64-4.4,2.51-6.81,4.08-4.88,3.19-10.55,2.38-17.71,1.36-5.68-.81-12.86-1.83-19.74-7.49a31,31,0,0,1-10.55-16.34c-.88-3.53-2.57-10.3.68-16.34,2.45-4.56,5.71-5,6.47-9.19.18-1.05.47-3.75-3.07-10.21-3.38-6.17-6.62-9.14-8.51-11.57-7.87-10.14-7.12-29.9,1.36-39.15.47-.51,5.19-4.2,14.64-11.58Z" transform="translate(-320.54 -209.99)"/><path class="cls-1" d="M353,261.69c-3.7-15.1-1.39-29.6,6.8-36.43a38.9,38.9,0,0,1,11.58-6.13,32.18,32.18,0,0,1,14.64-2,33.72,33.72,0,0,1,15.66,6.47c3.78,3,5.42,6,8.51,5.79,2.24-.17,3.5-1.9,5.1-3.41,5.4-5.11,12.61-5.9,17.71-6.47a37.44,37.44,0,0,1,20.76,3.75c4.93,2.5,10.64,5.4,12.6,11.23,1.88,5.59-.81,10.54,2,12.6,1.61,1.16,3.53.33,6.13,0,9.07-1.18,16.92,4.91,18,5.78,9.6,7.45,9.82,20.48,9.87,23.49.09,4.89.5,10.71-3.06,15-.9,1.08-2.41,2.51-5.45,6.13-2.5,3-3.27,4.15-3.74,5.79-.24.81-1.13,3.9.34,6.47,1.14,2,2.94,2.31,4.76,3.4,3.59,2.14,4.8,5.81,7.15,12.94a48.07,48.07,0,0,1,3.07,15.32c.06,4.2.31,20.4-11.24,28.59-1.72,1.22-8,5.65-15.32,4.77-4-.49-6-2.28-10.89-1.71-1.55.19-5.57.71-8.17,3.75a10.17,10.17,0,0,0-2,4.08c-2.14,7.1-10.4,12.19-13.28,14a36,36,0,0,1-21.45,5.45c-4.83-.35-13.67-1-18.38-7.15-2.47-3.23-2.42-6.16-6.13-8.51a12.35,12.35,0,0,0-8.51-1.7c-3.22.64-4.39,2.51-6.81,4.08-4.88,3.19-10.54,2.38-17.7,1.36-5.68-.81-12.86-1.83-19.74-7.49a31,31,0,0,1-10.56-16.34c-.88-3.53-2.56-10.3.68-16.34,2.46-4.56,5.72-5,6.47-9.19.19-1,.48-3.76-3.06-10.21-3.38-6.17-6.62-9.14-8.51-11.58C323,307,323.76,287.28,332.24,278c.47-.51,5.19-4.2,14.64-11.58C349.44,264.45,351.57,262.8,353,261.69Z" transform="translate(-320.54 -209.99)"/></svg>