<?xml version="1.0" encoding="utf-8"?>
<!-- Generator: Adobe Illustrator 26.0.1, SVG Export Plug-In . SVG Version: 6.00 Build 0)  -->
<svg version="1.1" id="Calque_1" xmlns="http://www.w3.org/2000/svg" xmlns:xlink="http://www.w3.org/1999/xlink" x="0px" y="0px"
	 viewBox="0 0 841.89 595.28" style="enable-background:new 0 0 841.89 595.28;" xml:space="preserve">
<style type="text/css">
	.st0{fill:#FFFFFF;}
	.st1{fill:#FFFFFF;stroke:#000000;stroke-width:2;stroke-miterlimit:10;}
	.st2{fill:none;}
	.st3{font-family:'Poppins-SemiBold';}
	.st4{font-size:14px;}
</style>
<path class="st0" d="M362.11,213.85"/>
<path class="st0" d="M427.47,298.62"/>
<path class="st1" d="M325.33,215.39c70.03,0.04,92.93-0.14,100.09-0.34c6.92-0.19,14.09,1.48,20.77-0.34c1.98-0.54,5.25-1.62,7.83,0
	c2.08,1.31,2.78,3.81,3.74,7.49c1.12,4.25,1.32,7.81,1.36,9.87c0.14,7.2-1.35,12.71-2.04,14.98c-1.06,3.49-2.66,7.3-4.09,9.53
	c-7.75,12.2-32,10.55-32,10.55s-6.13-2.72-6.47,21.45c-0.34,24.17-22.29,20.77-22.29,20.77s-17.54-1.7-17.54,13.28
	c0,14.98,4.09,26.89-25.19,27.23c-29.28,0.34-29.96-2.04-29.96-2.04V220.83C319.54,220.83,318.86,215.38,325.33,215.39z"/>
<rect x="334.7" y="253.09" class="st2" width="185.53" height="46.84"/>
<text transform="matrix(1 0 0 1 334.7022 263.4478)"><tspan x="0" y="0" class="st3 st4">Projet de </tspan><tspan x="0" y="16.8" class="st3 st4">diplôme</tspan></text>
</svg>
