<svg id="Calque_1" data-name="Calque 1" xmlns="http://www.w3.org/2000/svg" viewBox="0 0 155.53 112.81"><defs><style>.cls-1{fill:#939fd1;stroke-width:2px;}.cls-1,.cls-2{stroke:#000;stroke-miterlimit:10;}.cls-2{fill:#e9e670;stroke-width:0.25px;}</style></defs><path class="cls-1" d="M372.58,186c-42.4,1.49-76.85,25.25-77,53.09s34.18,49.19,76.58,47.7,76.85-25.25,76.95-53.08S415,184.52,372.58,186Zm67.67,48c-.09,22.61-30.54,42-68,43.32s-67.79-16-67.7-38.56,30.53-42,68-43.33S440.33,211.41,440.25,234Z" transform="translate(-294.62 -175.07)"/><path class="cls-1" d="M371.12,176.07c-41.85,0-75.12,20.5-74.32,45.84s35.37,45.9,77.22,45.93,75.12-20.5,74.32-45.84S413,176.1,371.12,176.07ZM439.55,222c.65,20.59-28.81,37.27-65.8,37.24s-67.51-16.73-68.16-37.32,28.81-37.26,65.8-37.23S438.9,201.41,439.55,222Z" transform="translate(-294.62 -175.07)"/><path class="cls-2" d="M245,141.28" transform="translate(-294.62 -175.07)"/><path d="M323.43,223.69v2.45h3.29v1.56h-3.29v2.59h3.71v1.59h-5.67V222.1h5.67v1.59Z" transform="translate(-294.62 -175.07)"/><path d="M328.88,225.89A3.38,3.38,0,0,1,332,224a3.3,3.3,0,0,1,1.44.33,2.81,2.81,0,0,1,1.09.88v-3.69h2v10.36h-2v-1.14a2.61,2.61,0,0,1-1,.92A3.24,3.24,0,0,1,332,232a3.41,3.41,0,0,1-1.8-.5,3.6,3.6,0,0,1-1.28-1.42,4.65,4.65,0,0,1-.47-2.11A4.53,4.53,0,0,1,328.88,225.89Zm5.36.89a2,2,0,0,0-.76-.78,2.06,2.06,0,0,0-1-.28,2,2,0,0,0-1,.27,2,2,0,0,0-.75.78,2.43,2.43,0,0,0-.28,1.21,2.5,2.5,0,0,0,.28,1.22,2.12,2.12,0,0,0,.76.81,1.89,1.89,0,0,0,1,.28,2,2,0,0,0,1.78-1.06,2.82,2.82,0,0,0,0-2.45Z" transform="translate(-294.62 -175.07)"/><path d="M338.54,222.88a1.09,1.09,0,0,1-.34-.82,1.08,1.08,0,0,1,.34-.82,1.2,1.2,0,0,1,.86-.33,1.17,1.17,0,0,1,.86.33,1.09,1.09,0,0,1,.35.82,1.1,1.1,0,0,1-.35.82,1.2,1.2,0,0,1-.86.32A1.24,1.24,0,0,1,338.54,222.88Zm1.83,1.25v7.75h-2v-7.75Z" transform="translate(-294.62 -175.07)"/><path d="M344.58,225.74v3.75a.78.78,0,0,0,.19.57,1,1,0,0,0,.64.17h.91v1.65h-1.23a2.16,2.16,0,0,1-2.48-2.4v-3.74h-.92v-1.61h.92v-1.92h2v1.92h1.74v1.61Z" transform="translate(-294.62 -175.07)"/><path d="M347.87,222.88a1.1,1.1,0,0,1-.35-.82,1.09,1.09,0,0,1,.35-.82,1.18,1.18,0,0,1,.86-.33,1.2,1.2,0,0,1,.86.33,1.08,1.08,0,0,1,.34.82,1.09,1.09,0,0,1-.34.82,1.24,1.24,0,0,1-.86.32A1.22,1.22,0,0,1,347.87,222.88Zm1.82,1.25v7.75h-2v-7.75Z" transform="translate(-294.62 -175.07)"/><path d="M353.05,231.51a3.62,3.62,0,0,1-1.4-1.4,4.24,4.24,0,0,1-.51-2.1,4.09,4.09,0,0,1,.52-2.1,3.62,3.62,0,0,1,1.44-1.41,4.15,4.15,0,0,1,2-.5,4.21,4.21,0,0,1,2,.5,3.66,3.66,0,0,1,1.43,1.41,4.09,4.09,0,0,1,.53,2.1,4.05,4.05,0,0,1-.54,2.1,3.78,3.78,0,0,1-1.46,1.4,4.23,4.23,0,0,1-2.05.5A4.12,4.12,0,0,1,353.05,231.51Zm3-1.47a1.92,1.92,0,0,0,.75-.77,2.61,2.61,0,0,0,.28-1.26,2.31,2.31,0,0,0-.58-1.7,1.9,1.9,0,0,0-1.42-.6,1.87,1.87,0,0,0-1.41.6,2.34,2.34,0,0,0-.57,1.7,2.42,2.42,0,0,0,.56,1.7,1.84,1.84,0,0,0,1.39.59A2,2,0,0,0,356.07,230Z" transform="translate(-294.62 -175.07)"/><path d="M367.1,224.89a3.38,3.38,0,0,1,.85,2.44v4.55h-2V227.6a2,2,0,0,0-.46-1.42,1.65,1.65,0,0,0-1.26-.5,1.68,1.68,0,0,0-1.28.5,2,2,0,0,0-.47,1.42v4.28h-2v-7.75h2v1a2.71,2.71,0,0,1,1-.79,3.09,3.09,0,0,1,1.34-.28A3,3,0,0,1,367.1,224.89Z" transform="translate(-294.62 -175.07)"/><path d="M378.39,218.63l-3.78,15.79H372.7l3.78-15.79Z" transform="translate(-294.62 -175.07)"/><path d="M383.24,225.89a3.38,3.38,0,0,1,3.09-1.89,3.27,3.27,0,0,1,1.44.33,2.81,2.81,0,0,1,1.09.88v-3.69h2v10.36h-2v-1.14a2.61,2.61,0,0,1-1,.92,3.22,3.22,0,0,1-1.52.35,3.41,3.41,0,0,1-1.8-.5,3.6,3.6,0,0,1-1.28-1.42,4.65,4.65,0,0,1-.47-2.11A4.53,4.53,0,0,1,383.24,225.89Zm5.36.89a2,2,0,0,0-.76-.78,2,2,0,0,0-2,0,2.09,2.09,0,0,0-.75.78,2.43,2.43,0,0,0-.28,1.21,2.5,2.5,0,0,0,.28,1.22,2.2,2.2,0,0,0,.76.81,1.89,1.89,0,0,0,1,.28,2,2,0,0,0,1-.27,2.06,2.06,0,0,0,.76-.79,2.82,2.82,0,0,0,0-2.45Z" transform="translate(-294.62 -175.07)"/><path d="M399.92,228.59h-5.67a2,2,0,0,0,.59,1.32,1.82,1.82,0,0,0,1.28.48,1.61,1.61,0,0,0,1.55-.94h2.11a3.5,3.5,0,0,1-1.28,1.84,3.79,3.79,0,0,1-2.34.72,4,4,0,0,1-2-.5,3.53,3.53,0,0,1-1.39-1.4,4.79,4.79,0,0,1,0-4.22,3.42,3.42,0,0,1,1.37-1.4,4.18,4.18,0,0,1,2-.49,4,4,0,0,1,2,.48,3.4,3.4,0,0,1,1.36,1.35,4.09,4.09,0,0,1,.48,2A4.22,4.22,0,0,1,399.92,228.59Zm-2-1.31a1.53,1.53,0,0,0-.55-1.21,1.88,1.88,0,0,0-1.3-.46,1.79,1.79,0,0,0-1.22.44,2,2,0,0,0-.61,1.23Z" transform="translate(-294.62 -175.07)"/><path d="M402.67,231.67a3.06,3.06,0,0,1-1.2-.93,2.44,2.44,0,0,1-.48-1.31h2a1.13,1.13,0,0,0,.44.75,1.59,1.59,0,0,0,1,.29,1.49,1.49,0,0,0,.88-.22.68.68,0,0,0,.31-.58.6.6,0,0,0-.38-.56,7,7,0,0,0-1.23-.42,10.33,10.33,0,0,1-1.42-.43,2.48,2.48,0,0,1-.95-.69,1.81,1.81,0,0,1-.4-1.24,2,2,0,0,1,.37-1.18,2.55,2.55,0,0,1,1.07-.84,4,4,0,0,1,1.63-.31,3.29,3.29,0,0,1,2.21.7,2.57,2.57,0,0,1,.91,1.86h-1.88a1,1,0,0,0-.38-.73,1.77,1.77,0,0,0-1.74-.08.65.65,0,0,0,.11,1.14,5.62,5.62,0,0,0,1.21.42,10.19,10.19,0,0,1,1.39.43,2.55,2.55,0,0,1,.95.69,2,2,0,0,1,.41,1.24,2.13,2.13,0,0,1-.37,1.21,2.46,2.46,0,0,1-1.07.83,4.47,4.47,0,0,1-3.32,0Z" transform="translate(-294.62 -175.07)"/><path d="M410.3,231.67a3.06,3.06,0,0,1-1.2-.93,2.44,2.44,0,0,1-.48-1.31h2a1.13,1.13,0,0,0,.44.75,1.59,1.59,0,0,0,1,.29,1.49,1.49,0,0,0,.88-.22.68.68,0,0,0,.31-.58.6.6,0,0,0-.38-.56,7,7,0,0,0-1.23-.42,10.33,10.33,0,0,1-1.42-.43,2.48,2.48,0,0,1-.95-.69,1.81,1.81,0,0,1-.4-1.24,2,2,0,0,1,.37-1.18,2.55,2.55,0,0,1,1.07-.84,4,4,0,0,1,1.63-.31,3.29,3.29,0,0,1,2.21.7,2.57,2.57,0,0,1,.91,1.86h-1.88a1,1,0,0,0-.38-.73,1.77,1.77,0,0,0-1.74-.08.64.64,0,0,0-.29.55.63.63,0,0,0,.4.59,5.62,5.62,0,0,0,1.21.42,10.19,10.19,0,0,1,1.39.43,2.55,2.55,0,0,1,.95.69,2,2,0,0,1,.41,1.24,2.13,2.13,0,0,1-.37,1.21,2.46,2.46,0,0,1-1.07.83,4.47,4.47,0,0,1-3.32,0Z" transform="translate(-294.62 -175.07)"/><path d="M416.8,222.88a1.09,1.09,0,0,1-.34-.82,1.08,1.08,0,0,1,.34-.82,1.2,1.2,0,0,1,.86-.33,1.18,1.18,0,0,1,.86.33,1.09,1.09,0,0,1,.35.82,1.1,1.1,0,0,1-.35.82,1.22,1.22,0,0,1-.86.32A1.24,1.24,0,0,1,416.8,222.88Zm1.83,1.25v7.75h-2v-7.75Z" transform="translate(-294.62 -175.07)"/><path d="M427.1,224.89a3.34,3.34,0,0,1,.85,2.44v4.55h-2V227.6a2,2,0,0,0-.46-1.42,1.65,1.65,0,0,0-1.26-.5,1.68,1.68,0,0,0-1.28.5,2,2,0,0,0-.47,1.42v4.28h-2v-7.75h2v1a2.79,2.79,0,0,1,1-.79,3.12,3.12,0,0,1,1.34-.28A3,3,0,0,1,427.1,224.89Z" transform="translate(-294.62 -175.07)"/></svg>