<svg xmlns="http://www.w3.org/2000/svg" viewBox="0 0 159.71 189.16"><defs><style>.cls-1{fill:#fff;}.cls-1,.cls-2,.cls-3,.cls-4{stroke:#1d1d1b;stroke-miterlimit:10;}.cls-2,.cls-4{fill:#d7a3ca;}.cls-3{fill:#009fe3;}.cls-4{stroke-width:2px;}.cls-5{fill:#1d1d1b;}</style></defs><g id="Calque_1" data-name="Calque 1"><path class="cls-1" d="M288.91,248.07" transform="translate(-241 -124.88)"/><path class="cls-1" d="M288.94,247" transform="translate(-241 -124.88)"/><path class="cls-2" d="M244.91,188.28" transform="translate(-241 -124.88)"/><path class="cls-3" d="M381.89,208.67" transform="translate(-241 -124.88)"/><path class="cls-4" d="M241.42,221.82c50.42-23.44,75.62-52.17,78.8-71a229.67,229.67,0,0,0,2.64-24.87c.13,5.37-3,8,2.21,25.11,10.55,34.35,47.87,66,73.87,66,2.45,0-1.84-.16-1.3,1" transform="translate(-241 -124.88)"/><path class="cls-4" d="M398.94,217c-50.39,23.49-75.55,52.26-78.71,71.14A230.49,230.49,0,0,0,317.62,313c-.14-5.37,3-8-2.25-25.11-10.59-34.33-43.65-62.72-69.34-66.72-1-.16-2.77,1-3.31-.13" transform="translate(-241 -124.88)"/><path class="cls-3" d="M378.12,206" transform="translate(-241 -124.88)"/><path class="cls-2" d="M242.25,186.51" transform="translate(-241 -124.88)"/></g><g id="Calque_2" data-name="Calque 2"><path class="cls-5" d="M280.15,214.49v7.67h-1.54v-7.67Z" transform="translate(-241 -124.88)"/><path class="cls-5" d="M281.64,217.46a2.61,2.61,0,0,1,1-1.1,2.68,2.68,0,0,1,1.42-.39,2.57,2.57,0,0,1,1.13.26,2.2,2.2,0,0,1,.86.69V214h1.56v8.14h-1.56v-.9a2.18,2.18,0,0,1-.8.73,2.56,2.56,0,0,1-1.2.27,2.67,2.67,0,0,1-1.41-.39,2.79,2.79,0,0,1-1-1.12,3.52,3.52,0,0,1-.37-1.65A3.45,3.45,0,0,1,281.64,217.46Zm4.2.69a1.51,1.51,0,0,0-.59-.61,1.63,1.63,0,0,0-.8-.22,1.59,1.59,0,0,0-.8.21,1.62,1.62,0,0,0-.58.61,2,2,0,0,0-.23,1,2,2,0,0,0,.23,1,1.63,1.63,0,0,0,.59.63,1.5,1.5,0,0,0,.79.22,1.62,1.62,0,0,0,.8-.21,1.53,1.53,0,0,0,.59-.62,2.23,2.23,0,0,0,0-1.93Z" transform="translate(-241 -124.88)"/><path class="cls-5" d="M294.74,219.58h-4.45a1.48,1.48,0,0,0,.46,1,1.41,1.41,0,0,0,1,.38,1.26,1.26,0,0,0,1.22-.74h1.66a2.74,2.74,0,0,1-1,1.45,3,3,0,0,1-1.84.56,3.15,3.15,0,0,1-1.57-.39,2.75,2.75,0,0,1-1.09-1.1,3.75,3.75,0,0,1,0-3.31,2.66,2.66,0,0,1,1.08-1.1,3.18,3.18,0,0,1,1.59-.39,3.22,3.22,0,0,1,1.56.38,2.6,2.6,0,0,1,1.07,1.06,3.2,3.2,0,0,1,.38,1.57A3.54,3.54,0,0,1,294.74,219.58Zm-1.55-1a1.23,1.23,0,0,0-.43-.95,1.56,1.56,0,0,0-1-.35,1.39,1.39,0,0,0-1,.34,1.53,1.53,0,0,0-.48,1Z" transform="translate(-241 -124.88)"/><path class="cls-5" d="M301.05,216.67a2.67,2.67,0,0,1,.67,1.92v3.57h-1.54V218.8a1.55,1.55,0,0,0-.37-1.12,1.28,1.28,0,0,0-1-.39,1.3,1.3,0,0,0-1,.39,1.55,1.55,0,0,0-.37,1.12v3.36h-1.54v-6.09h1.54v.76a2,2,0,0,1,.79-.62,2.38,2.38,0,0,1,1.05-.23A2.36,2.36,0,0,1,301.05,216.67Z" transform="translate(-241 -124.88)"/><path class="cls-5" d="M305,217.33v2.95a.58.58,0,0,0,.15.45.75.75,0,0,0,.5.14h.72v1.29h-1a1.7,1.7,0,0,1-1.95-1.89v-2.94h-.72v-1.26h.72v-1.51H305v1.51h1.37v1.26Z" transform="translate(-241 -124.88)"/><path class="cls-5" d="M307.55,215.09a.88.88,0,0,1-.27-.65.85.85,0,0,1,.27-.64,1,1,0,0,1,1.36,0,.88.88,0,0,1,.26.64.91.91,0,0,1-.26.65,1,1,0,0,1-1.36,0Zm1.44,1v6.09h-1.54v-6.09Z" transform="translate(-241 -124.88)"/><path class="cls-5" d="M312.3,217.33v2.95a.58.58,0,0,0,.15.45.73.73,0,0,0,.5.14h.71v1.29h-1a1.7,1.7,0,0,1-1.95-1.89v-2.94H310v-1.26h.73v-1.51h1.55v1.51h1.36v1.26Z" transform="translate(-241 -124.88)"/><path class="cls-5" d="M320.4,219.58h-4.46a1.53,1.53,0,0,0,.46,1,1.43,1.43,0,0,0,1,.38,1.25,1.25,0,0,0,1.22-.74h1.67a2.81,2.81,0,0,1-1,1.45,3,3,0,0,1-1.83.56,3.16,3.16,0,0,1-1.58-.39,2.75,2.75,0,0,1-1.09-1.1,3.41,3.41,0,0,1-.39-1.65,3.51,3.51,0,0,1,.38-1.66,2.66,2.66,0,0,1,1.08-1.1,3.41,3.41,0,0,1,3.15,0,2.54,2.54,0,0,1,1.07,1.06,3.2,3.2,0,0,1,.38,1.57A5.16,5.16,0,0,1,320.4,219.58Zm-1.56-1a1.23,1.23,0,0,0-.42-.95,1.57,1.57,0,0,0-1-.35,1.39,1.39,0,0,0-1,.34,1.53,1.53,0,0,0-.48,1Zm-.23-4.08-2.53,1.16v-1.1l2.53-1.31Z" transform="translate(-241 -124.88)"/><path class="cls-5" d="M326.72,220.75l1.54-4.68h1.64l-2.26,6.09h-1.87l-2.24-6.09h1.65Z" transform="translate(-241 -124.88)"/><path class="cls-5" d="M330.87,215.09a.88.88,0,0,1-.27-.65.85.85,0,0,1,.27-.64,1,1,0,0,1,1.36,0,.88.88,0,0,1,.26.64.91.91,0,0,1-.26.65,1,1,0,0,1-1.36,0Zm1.44,1v6.09h-1.54v-6.09Z" transform="translate(-241 -124.88)"/><path class="cls-5" d="M334.82,222a2.32,2.32,0,0,1-.94-.73,1.78,1.78,0,0,1-.38-1h1.55a.84.84,0,0,0,.34.58,1.4,1.4,0,0,0,1.44.06.53.53,0,0,0,.25-.45.48.48,0,0,0-.3-.45,5,5,0,0,0-1-.32,7.55,7.55,0,0,1-1.12-.35,1.87,1.87,0,0,1-.75-.53,1.46,1.46,0,0,1-.31-1,1.63,1.63,0,0,1,.29-.93,1.89,1.89,0,0,1,.84-.66,3.14,3.14,0,0,1,1.28-.24,2.61,2.61,0,0,1,1.74.55,2,2,0,0,1,.71,1.46H337a.81.81,0,0,0-.31-.57,1.32,1.32,0,0,0-1.36-.06.48.48,0,0,0-.23.42.51.51,0,0,0,.31.47,4.7,4.7,0,0,0,1,.33,8,8,0,0,1,1.09.34,2,2,0,0,1,.74.54,1.52,1.52,0,0,1,.33,1,1.57,1.57,0,0,1-.3.94,1.91,1.91,0,0,1-.83.66,3.31,3.31,0,0,1-1.27.23A3.18,3.18,0,0,1,334.82,222Z" transform="translate(-241 -124.88)"/><path class="cls-5" d="M345.57,216.07v6.09H344v-.77a1.92,1.92,0,0,1-.77.63,2.43,2.43,0,0,1-1,.22,2.62,2.62,0,0,1-1.27-.3,2.17,2.17,0,0,1-.86-.89,2.92,2.92,0,0,1-.31-1.4v-3.58h1.54v3.36a1.58,1.58,0,0,0,.36,1.11,1.28,1.28,0,0,0,1,.39,1.3,1.3,0,0,0,1-.39,1.58,1.58,0,0,0,.36-1.11v-3.36Z" transform="translate(-241 -124.88)"/><path class="cls-5" d="M352.71,219.58h-4.45a1.48,1.48,0,0,0,.46,1,1.43,1.43,0,0,0,1,.38,1.26,1.26,0,0,0,1.22-.74h1.66a2.74,2.74,0,0,1-1,1.45,3,3,0,0,1-1.84.56,3.15,3.15,0,0,1-1.57-.39,2.75,2.75,0,0,1-1.09-1.1,3.75,3.75,0,0,1,0-3.31,2.66,2.66,0,0,1,1.08-1.1,3.18,3.18,0,0,1,1.59-.39,3.22,3.22,0,0,1,1.56.38,2.6,2.6,0,0,1,1.07,1.06,3.2,3.2,0,0,1,.38,1.57A3.54,3.54,0,0,1,352.71,219.58Zm-1.55-1a1.23,1.23,0,0,0-.43-.95,1.56,1.56,0,0,0-1-.35,1.39,1.39,0,0,0-1,.34,1.53,1.53,0,0,0-.48,1Z" transform="translate(-241 -124.88)"/><path class="cls-5" d="M355.42,214v8.14h-1.54V214Z" transform="translate(-241 -124.88)"/><path class="cls-5" d="M358.48,214v8.14h-1.54V214Z" transform="translate(-241 -124.88)"/><path class="cls-5" d="M365.62,219.58h-4.46a1.53,1.53,0,0,0,.46,1,1.43,1.43,0,0,0,1,.38,1.27,1.27,0,0,0,1.23-.74h1.66a2.81,2.81,0,0,1-1,1.45,3,3,0,0,1-1.83.56,3.16,3.16,0,0,1-1.58-.39,2.75,2.75,0,0,1-1.09-1.1,3.41,3.41,0,0,1-.39-1.65,3.51,3.51,0,0,1,.38-1.66,2.66,2.66,0,0,1,1.08-1.1,3.21,3.21,0,0,1,1.6-.39,3.15,3.15,0,0,1,1.55.38,2.54,2.54,0,0,1,1.07,1.06,3.2,3.2,0,0,1,.38,1.57A3.62,3.62,0,0,1,365.62,219.58Zm-1.55-1a1.23,1.23,0,0,0-.43-.95,1.57,1.57,0,0,0-1-.35,1.39,1.39,0,0,0-1,.34,1.53,1.53,0,0,0-.48,1Z" transform="translate(-241 -124.88)"/></g></svg>