<svg xmlns="http://www.w3.org/2000/svg" viewBox="0 0 159 188.16"><defs><style>.cls-1{fill:#fff;}.cls-1,.cls-2,.cls-3{stroke:#1d1d1b;stroke-miterlimit:10;}.cls-2{fill:#d7a3ca;}.cls-3{fill:#009fe3;}.cls-4{fill:#1d1d1b;}</style></defs><g id="Calque_1" data-name="Calque 1"><path class="cls-1" d="M288.91,248.07" transform="translate(-241.21 -125.38)"/><path class="cls-1" d="M288.94,247" transform="translate(-241.21 -125.38)"/><path class="cls-2" d="M244.91,188.28" transform="translate(-241.21 -125.38)"/><path class="cls-3" d="M381.89,208.67" transform="translate(-241.21 -125.38)"/><path class="cls-2" d="M241.42,221.82c50.42-23.44,75.62-52.17,78.8-71a229.67,229.67,0,0,0,2.64-24.87c.13,5.37-3,8,2.21,25.11,10.55,34.35,47.87,66,73.87,66,2.45,0-1.84-.16-1.3,1" transform="translate(-241.21 -125.38)"/><path class="cls-2" d="M398.94,217c-50.39,23.49-75.55,52.26-78.71,71.14A230.49,230.49,0,0,0,317.62,313c-.14-5.37,3-8-2.25-25.11-10.59-34.33-43.65-62.72-69.34-66.72-1-.16-2.77,1-3.31-.13" transform="translate(-241.21 -125.38)"/><path class="cls-3" d="M378.12,206" transform="translate(-241.21 -125.38)"/><path class="cls-2" d="M242.25,186.51" transform="translate(-241.21 -125.38)"/></g><g id="Calque_2" data-name="Calque 2"><path class="cls-4" d="M291.27,214.39v6.73h-.87v-6.73Z" transform="translate(-241.21 -125.38)"/><path class="cls-4" d="M296.94,214v5.85c0,.43,0,.91,0,1.24h-.79l0-.83h0a1.8,1.8,0,0,1-1.65.94,2.2,2.2,0,0,1-2.07-2.45,2.32,2.32,0,0,1,2.17-2.6,1.62,1.62,0,0,1,1.46.74h0V214Zm-.88,4.23a1.55,1.55,0,0,0,0-.37,1.29,1.29,0,0,0-1.27-1c-.91,0-1.45.8-1.45,1.87s.48,1.78,1.43,1.78a1.31,1.31,0,0,0,1.29-1,1.53,1.53,0,0,0,0-.38Z" transform="translate(-241.21 -125.38)"/><path class="cls-4" d="M298.89,218.87a1.54,1.54,0,0,0,1.66,1.67,3,3,0,0,0,1.34-.25l.15.63a3.92,3.92,0,0,1-1.61.3,2.24,2.24,0,0,1-2.38-2.43,2.35,2.35,0,0,1,2.27-2.61,2.05,2.05,0,0,1,2,2.28,3.32,3.32,0,0,1,0,.41Zm2.58-.63a1.25,1.25,0,0,0-1.22-1.43,1.46,1.46,0,0,0-1.35,1.43Z" transform="translate(-241.21 -125.38)"/><path class="cls-4" d="M303.41,217.6c0-.5,0-.91,0-1.31h.78l.05.8h0a1.78,1.78,0,0,1,1.6-.91c.67,0,1.7.4,1.7,2.06v2.88h-.87v-2.78c0-.78-.29-1.43-1.12-1.43a1.25,1.25,0,0,0-1.18.9,1.27,1.27,0,0,0-.06.41v2.9h-.88Z" transform="translate(-241.21 -125.38)"/><path class="cls-4" d="M310,214.9v1.39h1.26V217H310v2.61c0,.6.17.93.66.93a1.6,1.6,0,0,0,.51-.06l0,.66a2.15,2.15,0,0,1-.78.12,1.22,1.22,0,0,1-1-.37,1.76,1.76,0,0,1-.34-1.25V217h-.75v-.67h.75v-1.16Z" transform="translate(-241.21 -125.38)"/><path class="cls-4" d="M313.21,214.93a.55.55,0,0,1-1.09,0,.54.54,0,0,1,.55-.55A.52.52,0,0,1,313.21,214.93Zm-1,6.19v-4.83h.88v4.83Z" transform="translate(-241.21 -125.38)"/><path class="cls-4" d="M315.63,214.9v1.39h1.26V217h-1.26v2.61c0,.6.17.93.66.93a1.6,1.6,0,0,0,.51-.06l0,.66a2.15,2.15,0,0,1-.78.12,1.22,1.22,0,0,1-.95-.37,1.76,1.76,0,0,1-.34-1.25V217H314v-.67h.75v-1.16Z" transform="translate(-241.21 -125.38)"/><path class="cls-4" d="M318.31,218.87a1.54,1.54,0,0,0,1.66,1.67,3,3,0,0,0,1.34-.25l.15.63a3.92,3.92,0,0,1-1.61.3,2.24,2.24,0,0,1-2.38-2.43,2.35,2.35,0,0,1,2.27-2.61,2,2,0,0,1,2,2.28c0,.18,0,.32,0,.41Zm2.58-.63a1.25,1.25,0,0,0-1.22-1.43,1.46,1.46,0,0,0-1.35,1.43Zm.21-4-1.22,1.43h-.63l.88-1.43Z" transform="translate(-241.21 -125.38)"/><path class="cls-4" d="M325.29,216.29l.95,2.72a12.45,12.45,0,0,1,.39,1.24h0c.11-.4.25-.8.41-1.24l.94-2.72h.91L327,221.12h-.84l-1.84-4.83Z" transform="translate(-241.21 -125.38)"/><path class="cls-4" d="M330.74,214.93a.55.55,0,0,1-1.09,0,.54.54,0,0,1,.55-.55A.52.52,0,0,1,330.74,214.93Zm-1,6.19v-4.83h.88v4.83Z" transform="translate(-241.21 -125.38)"/><path class="cls-4" d="M332,220.23a2.31,2.31,0,0,0,1.16.34c.64,0,.94-.32.94-.72s-.25-.64-.9-.88c-.87-.31-1.28-.79-1.28-1.37a1.49,1.49,0,0,1,1.67-1.42,2.42,2.42,0,0,1,1.19.3l-.22.64a1.88,1.88,0,0,0-1-.28c-.52,0-.81.3-.81.66s.29.58.92.82c.84.32,1.27.74,1.27,1.46s-.66,1.44-1.81,1.44a2.76,2.76,0,0,1-1.36-.33Z" transform="translate(-241.21 -125.38)"/><path class="cls-4" d="M340.1,219.81c0,.5,0,.93,0,1.31h-.78l-.05-.79h0a1.8,1.8,0,0,1-1.59.9c-.76,0-1.67-.42-1.67-2.11v-2.83h.88V219c0,.92.28,1.53,1.08,1.53a1.26,1.26,0,0,0,1.16-.79,1.57,1.57,0,0,0,.08-.45v-3h.87Z" transform="translate(-241.21 -125.38)"/><path class="cls-4" d="M342.06,218.87a1.54,1.54,0,0,0,1.66,1.67,3,3,0,0,0,1.33-.25l.15.63a3.9,3.9,0,0,1-1.6.3,2.24,2.24,0,0,1-2.38-2.43,2.35,2.35,0,0,1,2.27-2.61,2,2,0,0,1,2,2.28,3.32,3.32,0,0,1,0,.41Zm2.57-.63a1.25,1.25,0,0,0-1.21-1.43,1.46,1.46,0,0,0-1.35,1.43Z" transform="translate(-241.21 -125.38)"/><path class="cls-4" d="M346.58,214h.88v7.09h-.88Z" transform="translate(-241.21 -125.38)"/><path class="cls-4" d="M348.94,214h.88v7.09h-.88Z" transform="translate(-241.21 -125.38)"/><path class="cls-4" d="M351.79,218.87a1.54,1.54,0,0,0,1.65,1.67,3,3,0,0,0,1.34-.25l.15.63a3.92,3.92,0,0,1-1.61.3,2.24,2.24,0,0,1-2.37-2.43,2.35,2.35,0,0,1,2.26-2.61,2.05,2.05,0,0,1,2,2.28,3.32,3.32,0,0,1,0,.41Zm2.57-.63a1.25,1.25,0,0,0-1.21-1.43,1.46,1.46,0,0,0-1.35,1.43Z" transform="translate(-241.21 -125.38)"/></g></svg>