<?xml version="1.0" encoding="utf-8"?>
<!-- Generator: Adobe Illustrator 26.0.1, SVG Export Plug-In . SVG Version: 6.00 Build 0)  -->
<svg version="1.1" xmlns="http://www.w3.org/2000/svg" xmlns:xlink="http://www.w3.org/1999/xlink" x="0px" y="0px"
	 viewBox="0 0 841.89 595.28" style="enable-background:new 0 0 841.89 595.28;" xml:space="preserve">
<style type="text/css">
	.st0{fill:#939FD1;stroke:#000000;stroke-width:2;stroke-miterlimit:10;}
</style>
<g id="Calque_1">
</g>
<g id="Calque_2">
	<path class="st0" d="M261.85,301.34c0,0-4.6-7.15,6.13-7.15c10.72,0,39.57,7.15,39.57,7.15l36,9.96l11.49,2.55l-40.85-47.74
		c0,0-6.64-12.51-3.32-17.36c3.32-4.85,16.34-2.55,16.34-2.55l23.23,15.06l24.26,18.49l11.49,9.08l-3.83-16.34l-10.47-37.02
		c0,0-4.6-22.21,3.06-27.06c7.66-4.85,17.87,8.43,17.87,8.43l16.85,27.06l14.33,25.79v3.57l5.84-40.6l10.72-34.47l8.94-8.43
		c0,0,10.47,3.06,10.47,10.47c0,7.4,3.32,28.09,3.32,28.09l2.55,39.06c0,0,2.3,1.28,6.64-7.4s18.64-33.7,18.64-33.7l8.68-11.49
		c0,0,14.81-19.4,21.19-19.66c6.38-0.26,1.53,17.36,1.53,17.36l-14.55,51.83l-28.85,66.13c0,0-9.7,19.15-20.17,27.83
		c-10.47,8.68-23.23,15.32-33.19,14.81c-9.96-0.51-30.89-4.34-43.15-8.68c-12.26-4.34-50.55-19.4-50.55-19.4l-46.21-24.77
		L261.85,301.34z"/>
</g>
</svg>
