<svg xmlns="http://www.w3.org/2000/svg" viewBox="0 0 265.42 185.47"><defs><style>.cls-1{fill:#939fd1;stroke:#000;stroke-miterlimit:10;stroke-width:2px;}</style></defs><g id="Calque_2" data-name="Calque 2"><path class="cls-1" d="M261.85,301.34s-4.59-7.15,6.13-7.15,39.57,7.15,39.57,7.15l36,10L355,313.85l-40.85-47.74s-6.64-12.52-3.32-17.37,16.34-2.55,16.34-2.55l23.24,15.06,24.25,18.5,11.49,9.08-3.83-16.34-10.47-37S367.3,213.25,375,208.4s17.87,8.43,17.87,8.43l16.85,27.06L424,269.68v3.57l5.84-40.59,10.72-34.47,8.94-8.43S460,192.83,460,200.23s3.32,28.09,3.32,28.09l2.55,39.06s2.3,1.28,6.64-7.4,18.64-33.7,18.64-33.7l8.68-11.49s14.81-19.41,21.19-19.66,1.53,17.36,1.53,17.36L508,264.32l-28.85,66.13s-9.7,19.14-20.17,27.83-23.24,15.31-33.19,14.8-30.9-4.34-43.15-8.68S332.06,345,332.06,345l-46.21-24.77Z" transform="translate(-259.87 -188.64)"/><path d="M366.75,314.19H370v1.55h-5.18V306h2Z" transform="translate(-259.87 -188.64)"/><path d="M371.61,306h2.06l-1.52,3.53h-1.34Z" transform="translate(-259.87 -188.64)"/><path d="M382.39,308v7.76h-2v-1a2.65,2.65,0,0,1-1,.79,3.12,3.12,0,0,1-1.33.29,3.21,3.21,0,0,1-1.6-.39,2.61,2.61,0,0,1-1.1-1.13,3.7,3.7,0,0,1-.4-1.79V308h2v4.28a2,2,0,0,0,.46,1.42,1.88,1.88,0,0,0,2.53,0,2,2,0,0,0,.47-1.42V308Z" transform="translate(-259.87 -188.64)"/><path d="M390.86,308.75a3.34,3.34,0,0,1,.85,2.44v4.55h-2v-4.28a2,2,0,0,0-.46-1.42,1.61,1.61,0,0,0-1.26-.5,1.64,1.64,0,0,0-1.28.5,2,2,0,0,0-.47,1.42v4.28h-2V308h2v1a2.69,2.69,0,0,1,1-.79,3.13,3.13,0,0,1,1.34-.29A3,3,0,0,1,390.86,308.75Z" transform="translate(-259.87 -188.64)"/><path d="M393.71,306.73a1.09,1.09,0,0,1-.35-.82,1.1,1.1,0,0,1,.35-.82,1.18,1.18,0,0,1,.86-.33,1.2,1.2,0,0,1,.86.33,1.09,1.09,0,0,1,.34.82,1.08,1.08,0,0,1-.34.82,1.2,1.2,0,0,1-.86.33A1.18,1.18,0,0,1,393.71,306.73Zm1.82,1.25v7.76h-2V308Z" transform="translate(-259.87 -188.64)"/><path d="M401,309.59h-1.35v6.15h-2v-6.15h-.89V308h.89v-.39a2.58,2.58,0,0,1,.81-2.1,3.72,3.72,0,0,1,2.45-.63v1.65a1.57,1.57,0,0,0-1,.24,1.22,1.22,0,0,0-.27.91V308H401Z" transform="translate(-259.87 -188.64)"/><path d="M403.72,315.37a3.58,3.58,0,0,1-1.4-1.41,4.19,4.19,0,0,1-.51-2.1,4.14,4.14,0,0,1,.52-2.1,3.66,3.66,0,0,1,1.44-1.4,4,4,0,0,1,2-.5,4.1,4.1,0,0,1,2,.5,3.7,3.7,0,0,1,1.43,1.4,4.15,4.15,0,0,1,.53,2.1,4,4,0,0,1-.54,2.1,3.73,3.73,0,0,1-1.46,1.41,4.23,4.23,0,0,1-2.05.5A4.12,4.12,0,0,1,403.72,315.37Zm3-1.47a1.89,1.89,0,0,0,.75-.78,2.55,2.55,0,0,0,.28-1.26,2.34,2.34,0,0,0-.58-1.7,1.89,1.89,0,0,0-1.42-.59,1.86,1.86,0,0,0-1.41.59,2.84,2.84,0,0,0,0,3.4,1.81,1.81,0,0,0,1.39.6A2,2,0,0,0,406.74,313.9Z" transform="translate(-259.87 -188.64)"/><path d="M414.18,308.22a2.76,2.76,0,0,1,1.39-.35v2.06h-.52a1.63,1.63,0,0,0-1.86,1.95v3.86h-2V308h2v1.21A2.79,2.79,0,0,1,414.18,308.22Z" transform="translate(-259.87 -188.64)"/><path d="M428.82,308.75a3.31,3.31,0,0,1,.87,2.44v4.55h-2v-4.28a2,2,0,0,0-.46-1.4,1.89,1.89,0,0,0-2.52,0,1.91,1.91,0,0,0-.47,1.4v4.28h-2v-4.28a2,2,0,0,0-.47-1.4,1.64,1.64,0,0,0-1.26-.48,1.72,1.72,0,0,0-1.28.48,2,2,0,0,0-.47,1.4v4.28h-2V308h2v.94a2.78,2.78,0,0,1,1-.77,3.1,3.1,0,0,1,1.31-.28,3.35,3.35,0,0,1,1.62.39,2.67,2.67,0,0,1,1.11,1.1,2.73,2.73,0,0,1,1.1-1.08,3.13,3.13,0,0,1,1.56-.41A3.08,3.08,0,0,1,428.82,308.75Z" transform="translate(-259.87 -188.64)"/><path d="M431.69,306.73a1.08,1.08,0,0,1-.34-.82,1.09,1.09,0,0,1,.34-.82,1.2,1.2,0,0,1,.86-.33,1.18,1.18,0,0,1,.86.33,1.09,1.09,0,0,1,.34.82,1.08,1.08,0,0,1-.34.82,1.18,1.18,0,0,1-.86.33A1.2,1.2,0,0,1,431.69,306.73Zm1.83,1.25v7.76h-2V308Z" transform="translate(-259.87 -188.64)"/><path d="M436.71,315.52a3,3,0,0,1-1.2-.93,2.38,2.38,0,0,1-.48-1.3h2a1.09,1.09,0,0,0,.44.74,1.53,1.53,0,0,0,1,.3,1.49,1.49,0,0,0,.88-.23.67.67,0,0,0,.31-.57.62.62,0,0,0-.38-.57,8.21,8.21,0,0,0-1.23-.41,10.18,10.18,0,0,1-1.42-.44,2.35,2.35,0,0,1-.95-.68,1.82,1.82,0,0,1-.4-1.25,2,2,0,0,1,.37-1.17,2.4,2.4,0,0,1,1.07-.84,3.89,3.89,0,0,1,1.63-.31,3.34,3.34,0,0,1,2.21.69,2.59,2.59,0,0,1,.91,1.87h-1.88a1,1,0,0,0-.38-.73,1.4,1.4,0,0,0-.92-.28,1.46,1.46,0,0,0-.82.2.62.62,0,0,0-.29.54.65.65,0,0,0,.4.6,6.35,6.35,0,0,0,1.21.41,10.06,10.06,0,0,1,1.39.44,2.55,2.55,0,0,1,.95.69,1.94,1.94,0,0,1,.41,1.24,2.08,2.08,0,0,1-.37,1.2,2.4,2.4,0,0,1-1.07.84,4.41,4.41,0,0,1-3.32-.05Z" transform="translate(-259.87 -188.64)"/><path d="M443,309.75a3.41,3.41,0,0,1,1.28-1.4,3.33,3.33,0,0,1,1.8-.49,3.18,3.18,0,0,1,1.51.35,3,3,0,0,1,1.05.88V308h2v7.76h-2v-1.13a2.92,2.92,0,0,1-1.05.9,3.14,3.14,0,0,1-1.53.36,3.24,3.24,0,0,1-1.78-.51,3.54,3.54,0,0,1-1.28-1.42,4.9,4.9,0,0,1,0-4.19Zm5.36.89a2,2,0,0,0-1.78-1.06,2,2,0,0,0-1,.27,1.92,1.92,0,0,0-.75.77,2.47,2.47,0,0,0-.28,1.22,2.53,2.53,0,0,0,.28,1.22,2,2,0,0,0,.76.8,1.89,1.89,0,0,0,1,.28,2,2,0,0,0,1-.27,2,2,0,0,0,.76-.78,2.82,2.82,0,0,0,0-2.45Z" transform="translate(-259.87 -188.64)"/><path d="M454.85,309.59v3.76a.74.74,0,0,0,.19.56.92.92,0,0,0,.64.18h.91v1.65h-1.23a2.16,2.16,0,0,1-2.48-2.41v-3.74H452V308h.93v-1.91h2V308h1.74v1.61Z" transform="translate(-259.87 -188.64)"/><path d="M458.13,306.73a1.12,1.12,0,0,1-.34-.82,1.13,1.13,0,0,1,.34-.82,1.3,1.3,0,0,1,1.73,0,1.13,1.13,0,0,1,.34.82,1.12,1.12,0,0,1-.34.82,1.3,1.3,0,0,1-1.73,0ZM460,308v7.76h-2V308Z" transform="translate(-259.87 -188.64)"/><path d="M463.32,315.37a3.54,3.54,0,0,1-1.41-1.41,4.5,4.5,0,0,1,0-4.2,3.7,3.7,0,0,1,1.43-1.4,4.1,4.1,0,0,1,2-.5,4,4,0,0,1,2,.5,3.66,3.66,0,0,1,1.44,1.4,4.14,4.14,0,0,1,.52,2.1,4,4,0,0,1-.54,2.1,3.64,3.64,0,0,1-1.45,1.41,4.26,4.26,0,0,1-2.05.5A4.12,4.12,0,0,1,463.32,315.37Zm3-1.47a1.89,1.89,0,0,0,.75-.78,2.67,2.67,0,0,0,.28-1.26,2.38,2.38,0,0,0-.58-1.7,1.89,1.89,0,0,0-1.42-.59,1.86,1.86,0,0,0-1.41.59,2.38,2.38,0,0,0-.57,1.7,2.43,2.43,0,0,0,.55,1.7,1.83,1.83,0,0,0,1.4.6A2.07,2.07,0,0,0,466.34,313.9Z" transform="translate(-259.87 -188.64)"/><path d="M477.36,308.75a3.35,3.35,0,0,1,.86,2.44v4.55h-2v-4.28a2,2,0,0,0-.47-1.42,1.58,1.58,0,0,0-1.25-.5,1.67,1.67,0,0,0-1.29.5,2,2,0,0,0-.46,1.42v4.28h-2V308h2v1a2.61,2.61,0,0,1,1-.79,3.08,3.08,0,0,1,1.33-.29A3,3,0,0,1,477.36,308.75Z" transform="translate(-259.87 -188.64)"/><path d="M368.09,326.55a3.38,3.38,0,0,1,3.09-1.89,3.3,3.3,0,0,1,1.44.33,3,3,0,0,1,1.09.87v-3.68h2v10.36h-2v-1.15a2.63,2.63,0,0,1-1,.93,3.26,3.26,0,0,1-1.53.35,3.3,3.3,0,0,1-1.79-.51,3.47,3.47,0,0,1-1.28-1.42,4.59,4.59,0,0,1-.47-2.11A4.52,4.52,0,0,1,368.09,326.55Zm5.35.89a2,2,0,0,0-1.77-1.06,2,2,0,0,0-1,.27,1.92,1.92,0,0,0-.75.77,2.46,2.46,0,0,0-.29,1.21,2.54,2.54,0,0,0,.29,1.23,2.1,2.1,0,0,0,.75.81,2,2,0,0,0,1,.28,2.06,2.06,0,0,0,1-.28,2,2,0,0,0,.75-.78,2.82,2.82,0,0,0,0-2.45Z" transform="translate(-259.87 -188.64)"/><path d="M384.94,324.79v7.75h-2v-1a2.54,2.54,0,0,1-1,.79,3.12,3.12,0,0,1-1.33.29,3.28,3.28,0,0,1-1.61-.39,2.73,2.73,0,0,1-1.1-1.13,3.8,3.8,0,0,1-.4-1.78v-4.55h2v4.26a2,2,0,0,0,.47,1.43,1.61,1.61,0,0,0,1.26.49,1.65,1.65,0,0,0,1.27-.49,2,2,0,0,0,.46-1.43v-4.26Z" transform="translate(-259.87 -188.64)"/><path d="M402.14,325.55A3.31,3.31,0,0,1,403,328v4.55h-2v-4.28a2,2,0,0,0-.46-1.4,1.67,1.67,0,0,0-1.26-.48,1.7,1.7,0,0,0-1.27.48,2,2,0,0,0-.47,1.4v4.28h-2v-4.28a2,2,0,0,0-.46-1.4,1.67,1.67,0,0,0-1.26-.48,1.7,1.7,0,0,0-1.28.48,2,2,0,0,0-.47,1.4v4.28h-2v-7.75h2v.93a2.74,2.74,0,0,1,1-.77,3.17,3.17,0,0,1,1.31-.28,3.36,3.36,0,0,1,1.63.39,2.65,2.65,0,0,1,1.1,1.1,2.79,2.79,0,0,1,1.1-1.08,3.35,3.35,0,0,1,3.87.47Z" transform="translate(-259.87 -188.64)"/><path d="M406.3,332.17a3.54,3.54,0,0,1-1.41-1.41,4.5,4.5,0,0,1,0-4.2,3.7,3.7,0,0,1,1.43-1.4,4.1,4.1,0,0,1,2-.5,4,4,0,0,1,2,.5,3.66,3.66,0,0,1,1.44,1.4,4.14,4.14,0,0,1,.52,2.1,4,4,0,0,1-.54,2.1,3.71,3.71,0,0,1-1.45,1.41,4.26,4.26,0,0,1-2.05.5A4.12,4.12,0,0,1,406.3,332.17Zm3-1.47a1.89,1.89,0,0,0,.75-.78,2.67,2.67,0,0,0,.28-1.26,2.38,2.38,0,0,0-.58-1.7,2,2,0,0,0-1.43-.59,1.87,1.87,0,0,0-1.4.59,2.86,2.86,0,0,0,0,3.4,1.83,1.83,0,0,0,1.4.6A2.1,2.1,0,0,0,409.32,330.7Z" transform="translate(-259.87 -188.64)"/><path d="M420.34,325.55a3.35,3.35,0,0,1,.86,2.44v4.55h-2v-4.28a2,2,0,0,0-.47-1.42,1.62,1.62,0,0,0-1.26-.5,1.69,1.69,0,0,0-1.28.5,2,2,0,0,0-.47,1.42v4.28h-2v-7.75h2v1a2.83,2.83,0,0,1,1-.79,3.08,3.08,0,0,1,1.33-.29A3,3,0,0,1,420.34,325.55Z" transform="translate(-259.87 -188.64)"/><path d="M423,326.55a3.48,3.48,0,0,1,1.28-1.4,3.44,3.44,0,0,1,1.81-.49,3.3,3.3,0,0,1,1.44.33,2.88,2.88,0,0,1,1.09.87v-3.68h2v10.36h-2v-1.15a2.63,2.63,0,0,1-1,.93,3.24,3.24,0,0,1-1.52.35,3.33,3.33,0,0,1-1.8-.51,3.54,3.54,0,0,1-1.28-1.42,4.59,4.59,0,0,1-.47-2.11A4.52,4.52,0,0,1,423,326.55Zm5.36.89a2,2,0,0,0-1.78-1.06,2,2,0,0,0-1.76,1,2.46,2.46,0,0,0-.28,1.21,2.54,2.54,0,0,0,.28,1.23,2.2,2.2,0,0,0,.76.81,2,2,0,0,0,1,.28,2.06,2.06,0,0,0,1-.28,2,2,0,0,0,.76-.78,2.82,2.82,0,0,0,0-2.45Z" transform="translate(-259.87 -188.64)"/><path d="M439.7,329.25H434a2,2,0,0,0,.59,1.32,1.85,1.85,0,0,0,1.28.47,1.6,1.6,0,0,0,1.55-.94h2.11a3.53,3.53,0,0,1-1.28,1.85,3.79,3.79,0,0,1-2.34.72,4,4,0,0,1-2-.5,3.49,3.49,0,0,1-1.39-1.41,4.29,4.29,0,0,1-.49-2.1,4.35,4.35,0,0,1,.49-2.11,3.36,3.36,0,0,1,1.37-1.4,4.07,4.07,0,0,1,2-.49,4.14,4.14,0,0,1,2,.47,3.36,3.36,0,0,1,1.36,1.36,4.09,4.09,0,0,1,.48,2A4.3,4.3,0,0,1,439.7,329.25Zm-2-1.32a1.56,1.56,0,0,0-.55-1.21,1.92,1.92,0,0,0-1.3-.45,1.79,1.79,0,0,0-1.22.44,1.91,1.91,0,0,0-.61,1.22Z" transform="translate(-259.87 -188.64)"/></g></svg>