<svg id="Calque_1" data-name="Calque 1" xmlns="http://www.w3.org/2000/svg" viewBox="0 0 187.99 188.34"><defs><style>.cls-1{fill:#fff;}.cls-1,.cls-2{stroke:#1d1d1b;stroke-miterlimit:10;stroke-width:2px;}.cls-2{fill:none;}.cls-3{fill:#1d1d1b;}</style></defs><path class="cls-1" d="M349.15,255.77c-3.7-15.1-1.39-29.6,6.81-36.43a38.83,38.83,0,0,1,11.57-6.13,32.18,32.18,0,0,1,14.64-2,33.66,33.66,0,0,1,15.66,6.47c3.78,3,5.43,6,8.51,5.79,2.24-.17,3.51-1.89,5.11-3.41,5.4-5.11,12.6-5.9,17.7-6.47a37.44,37.44,0,0,1,20.76,3.75c4.93,2.5,10.64,5.4,12.6,11.23,1.88,5.59-.8,10.54,2,12.6,1.62,1.16,3.53.33,6.13,0,9.08-1.17,16.92,4.91,18,5.78,9.6,7.45,9.82,20.48,9.88,23.49.08,4.89.49,10.71-3.07,15-.89,1.08-2.41,2.51-5.44,6.13-2.51,3-3.28,4.16-3.75,5.79-.23.81-1.13,3.9.34,6.47,1.15,2,2.94,2.31,4.77,3.4,3.58,2.14,4.79,5.81,7.15,12.94,1.39,4.22,3,9,3.06,15.32.06,4.2.31,20.4-11.23,28.59-1.73,1.22-8,5.65-15.32,4.77-4-.49-6-2.28-10.9-1.7-1.55.18-5.56.7-8.17,3.74a10.31,10.31,0,0,0-2,4.08c-2.13,7.1-10.4,12.19-13.28,14a36,36,0,0,1-21.44,5.45c-4.84-.35-13.67-1-18.39-7.15-2.47-3.23-2.42-6.16-6.12-8.51a12.39,12.39,0,0,0-8.51-1.7c-3.23.64-4.4,2.51-6.81,4.08-4.88,3.19-10.55,2.38-17.71,1.36-5.68-.81-12.86-1.83-19.74-7.49a31,31,0,0,1-10.55-16.34c-.88-3.53-2.57-10.3.68-16.34,2.45-4.56,5.71-5,6.47-9.19.18-1.05.47-3.75-3.07-10.21-3.38-6.17-6.62-9.14-8.51-11.57-7.87-10.14-7.12-29.9,1.36-39.15.47-.51,5.19-4.2,14.64-11.58Z" transform="translate(-320.54 -209.99)"/><path class="cls-2" d="M355,258.69c-3.7-15.1-1.39-29.6,6.8-36.43a38.9,38.9,0,0,1,11.58-6.13,32.18,32.18,0,0,1,14.64-2,33.72,33.72,0,0,1,15.66,6.47c3.78,3,5.42,6,8.51,5.79,2.24-.17,3.5-1.9,5.1-3.41,5.4-5.11,12.61-5.9,17.71-6.47a37.44,37.44,0,0,1,20.76,3.75c4.93,2.5,10.64,5.4,12.6,11.23,1.88,5.59-.81,10.54,2,12.6,1.61,1.16,3.53.33,6.13,0,9.07-1.18,16.92,4.91,18,5.78,9.6,7.45,9.82,20.48,9.87,23.49.09,4.89.5,10.71-3.06,15-.9,1.08-2.41,2.51-5.45,6.13-2.5,3-3.27,4.15-3.74,5.79-.24.81-1.13,3.9.34,6.47,1.14,2,2.94,2.31,4.76,3.4,3.59,2.14,4.8,5.81,7.15,12.94a48.07,48.07,0,0,1,3.07,15.32c.06,4.2.31,20.4-11.24,28.59-1.72,1.22-8,5.65-15.32,4.77-4-.49-6-2.28-10.89-1.71-1.55.19-5.57.71-8.17,3.75a10.17,10.17,0,0,0-2,4.08c-2.14,7.1-10.4,12.19-13.28,14a36,36,0,0,1-21.45,5.45c-4.83-.35-13.67-1-18.38-7.15-2.47-3.23-2.42-6.16-6.13-8.51a12.35,12.35,0,0,0-8.51-1.7c-3.22.64-4.39,2.51-6.81,4.08-4.88,3.19-10.54,2.38-17.7,1.36-5.68-.81-12.86-1.83-19.74-7.49a31,31,0,0,1-10.56-16.34c-.88-3.53-2.56-10.3.68-16.34,2.46-4.56,5.72-5,6.47-9.19.19-1,.48-3.76-3.06-10.21-3.38-6.17-6.62-9.14-8.51-11.58C325,304,325.76,284.28,334.24,275c.47-.51,5.19-4.2,14.64-11.58C351.44,261.45,353.57,259.8,355,258.69Z" transform="translate(-320.54 -209.99)"/><path class="cls-3" d="M389.89,303.29v9.77h-2V306.7l-2.62,6.36h-1.48l-2.63-6.36v6.36h-2v-9.77h2.22l3.11,7.26,3.11-7.26Z" transform="translate(-320.54 -209.99)"/><path class="cls-3" d="M391.79,307.07a3.35,3.35,0,0,1,3.07-1.89,3.08,3.08,0,0,1,1.52.35,2.91,2.91,0,0,1,1,.88V305.3h2v7.76h-2v-1.14a2.81,2.81,0,0,1-1,.91,3.26,3.26,0,0,1-1.53.35,3.29,3.29,0,0,1-1.79-.5,3.58,3.58,0,0,1-1.27-1.42,4.62,4.62,0,0,1-.47-2.11A4.49,4.49,0,0,1,391.79,307.07Zm5.36.88a2,2,0,0,0-.76-.78,2.08,2.08,0,0,0-2,0,2,2,0,0,0-.75.78,2.43,2.43,0,0,0-.29,1.21,2.54,2.54,0,0,0,.29,1.23,2,2,0,0,0,.76.8,1.87,1.87,0,0,0,1,.28,2,2,0,0,0,1-.27,1.93,1.93,0,0,0,.76-.79,2.56,2.56,0,0,0,.27-1.22A2.6,2.6,0,0,0,397.15,308Z" transform="translate(-320.54 -209.99)"/><path class="cls-3" d="M401.3,307.07a3.52,3.52,0,0,1,1.36-1.4,3.94,3.94,0,0,1,2-.49,3.84,3.84,0,0,1,2.39.72,3.46,3.46,0,0,1,1.26,2h-2.11a1.49,1.49,0,0,0-.57-.79,1.64,1.64,0,0,0-1-.29,1.61,1.61,0,0,0-1.33.61,2.74,2.74,0,0,0-.49,1.73,2.68,2.68,0,0,0,.49,1.71,1.61,1.61,0,0,0,1.33.61,1.48,1.48,0,0,0,1.56-1.06h2.11a3.55,3.55,0,0,1-1.27,2,3.74,3.74,0,0,1-2.38.74,3.94,3.94,0,0,1-2-.49,3.52,3.52,0,0,1-1.36-1.4,4.79,4.79,0,0,1,0-4.22Z" transform="translate(-320.54 -209.99)"/><path class="cls-3" d="M419.07,311.2h-3.89l-.65,1.86h-2.06l3.52-9.79h2.28l3.51,9.79h-2.07Zm-.53-1.57-1.42-4.09-1.41,4.09Z" transform="translate(-320.54 -209.99)"/><path class="cls-3" d="M423.07,307.07a3.29,3.29,0,0,1,1.28-1.4,3.48,3.48,0,0,1,3.24-.17,2.94,2.94,0,0,1,1.1.88V302.7h2v10.36h-2v-1.15a2.71,2.71,0,0,1-1,.92,3.08,3.08,0,0,1-1.52.35,3.29,3.29,0,0,1-1.79-.5,3.46,3.46,0,0,1-1.28-1.42,4.49,4.49,0,0,1-.47-2.11A4.37,4.37,0,0,1,423.07,307.07Zm5.35.88a2,2,0,0,0-.76-.78,2,2,0,0,0-1-.27,1.92,1.92,0,0,0-1.75,1,2.33,2.33,0,0,0-.29,1.21,2.43,2.43,0,0,0,.29,1.23,2,2,0,0,0,.75.8,1.89,1.89,0,0,0,1,.28,2,2,0,0,0,1-.27,1.93,1.93,0,0,0,.76-.79,2.45,2.45,0,0,0,.28-1.22A2.49,2.49,0,0,0,428.42,308Z" transform="translate(-320.54 -209.99)"/><path class="cls-3" d="M432.56,307.07a3.33,3.33,0,0,1,1.27-1.4,3.38,3.38,0,0,1,1.8-.49,3.08,3.08,0,0,1,1.52.35,3,3,0,0,1,1,.88V305.3h2v7.76h-2v-1.14a2.89,2.89,0,0,1-1,.91,3.48,3.48,0,0,1-3.32-.15,3.51,3.51,0,0,1-1.27-1.42,4.62,4.62,0,0,1-.47-2.11A4.49,4.49,0,0,1,432.56,307.07Zm5.35.88a2,2,0,0,0-.75-.78,2.06,2.06,0,0,0-1-.27,1.95,1.95,0,0,0-1.75,1,2.43,2.43,0,0,0-.29,1.21,2.54,2.54,0,0,0,.29,1.23,2,2,0,0,0,.75.8,1.92,1.92,0,0,0,1,.28,2.06,2.06,0,0,0,1-.27,1.91,1.91,0,0,0,.75-.79,2.45,2.45,0,0,0,.28-1.22A2.49,2.49,0,0,0,437.91,308Z" transform="translate(-320.54 -209.99)"/><path class="cls-3" d="M454,306.06a3.34,3.34,0,0,1,.88,2.45v4.55h-2v-4.29a1.93,1.93,0,0,0-.47-1.39,1.64,1.64,0,0,0-1.26-.48,1.67,1.67,0,0,0-1.26.48,1.89,1.89,0,0,0-.47,1.39v4.29h-2v-4.29a1.93,1.93,0,0,0-.47-1.39,1.64,1.64,0,0,0-1.26-.48,1.72,1.72,0,0,0-1.28.48,1.93,1.93,0,0,0-.47,1.39v4.29h-2V305.3h2v.94a2.67,2.67,0,0,1,1-.77,3,3,0,0,1,1.31-.28,3.43,3.43,0,0,1,1.62.38,2.73,2.73,0,0,1,1.11,1.1,2.83,2.83,0,0,1,1.1-1.07,3.35,3.35,0,0,1,3.86.46Z" transform="translate(-320.54 -209.99)"/><path class="cls-3" d="M458,312.84a3,3,0,0,1-1.2-.93,2.41,2.41,0,0,1-.48-1.3h2a1.11,1.11,0,0,0,.44.74,1.59,1.59,0,0,0,1,.29,1.51,1.51,0,0,0,.88-.22.67.67,0,0,0,.31-.57.6.6,0,0,0-.38-.57,6.4,6.4,0,0,0-1.23-.41,10.18,10.18,0,0,1-1.42-.44,2.48,2.48,0,0,1-.95-.68,1.84,1.84,0,0,1-.4-1.25,2,2,0,0,1,.37-1.18,2.58,2.58,0,0,1,1.06-.84,4.12,4.12,0,0,1,1.63-.3,3.35,3.35,0,0,1,2.22.69,2.57,2.57,0,0,1,.91,1.87h-1.88a1.05,1.05,0,0,0-.38-.74,1.46,1.46,0,0,0-.92-.27,1.36,1.36,0,0,0-.82.2.62.62,0,0,0-.29.54.65.65,0,0,0,.4.6,6.35,6.35,0,0,0,1.21.41,10.66,10.66,0,0,1,1.39.43,2.37,2.37,0,0,1,.94.7,1.87,1.87,0,0,1,.42,1.24,2.13,2.13,0,0,1-.37,1.2,2.51,2.51,0,0,1-1.07.83,4.47,4.47,0,0,1-3.32,0Z" transform="translate(-320.54 -209.99)"/></svg>